<?xml version="1.0" encoding="UTF-8"?>
<svg version="1.1" xmlns="http://www.w3.org/2000/svg" width="1254" height="1254">
<path d="M0 0 C413.82 0 827.64 0 1254 0 C1254 413.82 1254 827.64 1254 1254 C840.18 1254 426.36 1254 0 1254 C0 840.18 0 426.36 0 0 Z " fill="#FDFDFD" transform="translate(0,0)"/>
<path d="M0 0 C0 16.83 0 33.66 0 51 C-9.405 51.6496875 -9.405 51.6496875 -19 52.3125 C-47.36650843 54.25112149 -47.36650843 54.25112149 -75.32373047 59.21435547 C-78.67749474 59.93107837 -82.0015162 60.48116292 -85.39213562 60.97543335 C-95.985513 62.52490117 -106.31315555 64.75131926 -116.6875 67.375 C-117.52531006 67.58465393 -118.36312012 67.79430786 -119.22631836 68.01031494 C-132.97789021 71.4708065 -146.51681334 75.48858495 -160 79.875 C-160.85338959 80.1514032 -161.70677917 80.4278064 -162.58602905 80.71258545 C-165.0188499 81.50490252 -167.44767957 82.30819208 -169.875 83.1171875 C-170.58167313 83.34917847 -171.28834625 83.58116943 -172.01643372 83.82019043 C-176.24931052 85.2552852 -180.15578821 87.01689492 -184.12615967 89.06546021 C-186.71667214 90.35742567 -189.38366059 91.35218533 -192.1015625 92.34375 C-199.34351315 95.07955169 -206.36537926 98.22069034 -213.375 101.5 C-214.02141449 101.80135864 -214.66782898 102.10271729 -215.33383179 102.41320801 C-227.04161671 107.89053848 -238.33703143 113.94333167 -249.47363281 120.51123047 C-251.89864668 121.94027324 -254.33386129 123.34990317 -256.7734375 124.75390625 C-264.43019982 129.17766554 -271.95158411 133.74125615 -279.22802734 138.77441406 C-280.53850787 139.6808087 -281.85176078 140.58319794 -283.16650391 141.48339844 C-300.95952932 153.67579308 -317.891433 166.65284625 -334 181 C-334.88945312 181.78890625 -335.77890625 182.5778125 -336.6953125 183.390625 C-339.1437638 185.57927279 -341.57394887 187.78656055 -344 190 C-344.95777344 190.86496094 -345.91554688 191.72992188 -346.90234375 192.62109375 C-353.38375636 198.50746142 -359.67283014 204.57009399 -365.875 210.75 C-366.57633057 211.44673828 -367.27766113 212.14347656 -368.00024414 212.86132812 C-372.53660055 217.41116152 -376.82638608 222.11655312 -381 227 C-381.46196777 227.53496094 -381.92393555 228.06992187 -382.39990234 228.62109375 C-389.02227309 236.30294457 -395.40880648 244.15021402 -401.59960938 252.18310547 C-402.52782802 253.38739472 -403.45879037 254.58957458 -404.39257812 255.78955078 C-435.88759447 296.34102697 -461.55029056 342.40208392 -479.94946289 390.2902832 C-480.9924971 392.98064729 -482.07072659 395.65466447 -483.15625 398.328125 C-484.59292382 401.90792302 -485.85257742 405.48276437 -486.9375 409.1875 C-488.29650401 413.76129526 -489.76403988 418.28010571 -491.3125 422.79296875 C-494.24057855 431.47628322 -496.68765613 440.27677859 -499.0625 449.125 C-499.2819931 449.94135925 -499.50148621 450.75771851 -499.72763062 451.59881592 C-503.0457104 463.98887456 -506.08726214 476.30546082 -508 489 C-508.09776733 489.64640442 -508.19553467 490.29280884 -508.29626465 490.95880127 C-509.55954485 499.33440141 -510.77863512 507.71640586 -511.94921875 516.10546875 C-512.12799561 517.38574951 -512.30677246 518.66603027 -512.4909668 519.98510742 C-513.61574341 528.59366413 -514.22982371 537.17286405 -514.546875 545.84765625 C-514.58850769 546.97115982 -514.63014038 548.09466339 -514.67303467 549.25221252 C-515.08209762 561.11068531 -515.22093781 572.96632209 -515.24023438 584.83129883 C-515.24998696 588.43268546 -515.28120812 592.03351016 -515.3125 595.63476562 C-515.3817146 610.98163584 -514.3489883 625.92993361 -512.36987305 641.14639282 C-512.0484533 643.62617799 -511.74622867 646.10664864 -511.45898438 648.59057617 C-509.71291046 663.56920699 -507.44845302 678.20539378 -503.58056641 692.78759766 C-502.72895428 696.03289163 -501.96801287 699.29947482 -501.1875 702.5625 C-481.95482906 778.41615419 -446.58554059 848.16764016 -396 908 C-395.57364258 908.50982422 -395.14728516 909.01964844 -394.70800781 909.54492188 C-383.15180365 923.35381327 -370.76815344 936.31013051 -358.0625 949.0625 C-357.1866626 949.94301025 -356.3108252 950.82352051 -355.40844727 951.73071289 C-350.43314074 956.69368668 -345.35529785 961.45056488 -340 966 C-339.46737549 966.45963135 -338.93475098 966.9192627 -338.38598633 967.39282227 C-293.09675012 1006.46488958 -240.87354083 1038.37278063 -185.1875 1060.25 C-184.49358154 1060.52280792 -183.79966309 1060.79561584 -183.0847168 1061.07669067 C-176.21344557 1063.7629956 -169.34033926 1066.32059161 -162.24243164 1068.34960938 C-160.01908444 1068.99446478 -157.8326616 1069.70928001 -155.640625 1070.453125 C-128.3260179 1079.65358321 -100.44994936 1086.66803191 -71.89550781 1090.58691406 C-69.26248414 1090.96255285 -66.64434599 1091.38442307 -64.0234375 1091.8359375 C6.83756213 1103.9112677 83.53556937 1095.45770245 152 1075 C153.37497235 1074.59886354 154.74996914 1074.19781085 156.125 1073.796875 C176.05082743 1067.80224048 195.62747616 1060.54404431 214.62109375 1052.05712891 C216.94802589 1051.02309605 219.28428339 1050.01409973 221.625 1049.01171875 C254.74788459 1034.73603071 286.18206038 1015.60990046 315 994 C315.61198242 993.54109375 316.22396484 993.0821875 316.85449219 992.609375 C331.21532463 981.7890248 345.93858381 970.53097883 358.44921875 957.5546875 C360.12396958 955.87571816 361.88192726 954.34962709 363.6875 952.8125 C371.37924441 946.16826942 378.58255954 938.85233879 385.16796875 931.11328125 C387.04906016 928.94340822 388.98945236 926.83499949 390.94335938 924.73071289 C400.27686035 914.66982277 408.73648129 903.94744981 417 893 C417.63760254 892.15791992 417.63760254 892.15791992 418.28808594 891.29882812 C434.61424544 869.65346091 448.71303507 846.6039024 462 823 C468.87660978 824.2006779 475.49328317 825.95825491 482.17089844 827.96484375 C488.40115885 829.83638443 494.65919152 831.58986468 500.93554688 833.30004883 C505.00295974 834.41580147 509.01049182 835.62409088 513 837 C507.05122437 852.37712106 498.31255352 866.85547479 489.6875 880.875 C488.72046143 882.44930786 488.72046143 882.44930786 487.73388672 884.05541992 C483.4448687 890.9319956 478.82180426 897.48922793 474 904 C473.14706529 905.18856278 472.29745823 906.3795303 471.453125 907.57421875 C462.38926309 920.38254844 453.14365487 932.92164928 442.81640625 944.74609375 C440.21554633 947.72769629 437.72543059 950.7881423 435.25 953.875 C432.07833928 957.78518822 428.76879947 961.39049472 425.1171875 964.85546875 C423.23812475 966.75879984 421.5001109 968.71043807 419.75390625 970.734375 C416.02844936 975.0240999 412.090406 979.05789914 408.0625 983.0625 C407.39798828 983.73087891 406.73347656 984.39925781 406.04882812 985.08789062 C402.12385925 989.00524559 398.08913649 992.73208282 393.89086914 996.35424805 C391.62371839 998.32750347 389.42774175 1000.36761114 387.2355957 1002.42333984 C381.03869332 1008.2342185 374.67047916 1013.73383224 368 1019 C367.3596582 1019.50756836 366.71931641 1020.01513672 366.05957031 1020.53808594 C343.17192473 1038.64734085 319.33586125 1055.46391016 294 1070 C293.3488623 1070.37366699 292.69772461 1070.74733398 292.02685547 1071.13232422 C282.44617067 1076.59760238 272.71445232 1081.77061315 262.9375 1086.875 C261.89094238 1087.4225293 260.84438477 1087.97005859 259.76611328 1088.53417969 C254.55720486 1091.23657705 249.33362804 1093.80132338 243.95043945 1096.13720703 C241.28437093 1097.31656442 238.70957364 1098.65280014 236.125 1100 C231.3619849 1102.40874207 226.59459763 1104.33628637 221.5546875 1106.078125 C219.27110245 1106.90217098 217.12842826 1107.83494845 214.9375 1108.875 C209.72165927 1111.26637824 204.27866697 1112.96894811 198.82202148 1114.71826172 C194.89824244 1115.98699765 191.0638755 1117.3551352 187.25 1118.92578125 C163.59766576 1128.51216982 138.12039103 1133.38869772 113.22784424 1138.53582764 C110.10549579 1139.18637036 106.98874382 1139.8625079 103.87109375 1140.53515625 C86.39670152 1144.20488655 68.69557761 1146.15233581 50.93255615 1147.81796265 C49.21497063 1147.97975082 47.49827713 1148.15094696 45.78173828 1148.32348633 C34.25945393 1149.33170865 22.68583137 1149.18605592 11.12890625 1149.18530273 C7.43217039 1149.18746654 3.73574492 1149.20560774 0.0390625 1149.22460938 C-21.80862802 1149.27702112 -43.6076251 1148.24090818 -65.25 1145.125 C-67.12268555 1144.8623938 -67.12268555 1144.8623938 -69.03320312 1144.59448242 C-72.69062265 1144.07476105 -76.34530891 1143.53851554 -80 1143 C-81.00353516 1142.85868652 -82.00707031 1142.71737305 -83.04101562 1142.57177734 C-108.68611503 1138.93769626 -134.59939749 1132.99593277 -159.11962891 1124.62011719 C-162.28018987 1123.57781326 -165.48112947 1122.70371689 -168.6875 1121.8125 C-172.81470267 1120.65098045 -176.83371449 1119.41785737 -180.8203125 1117.84375 C-183.81572641 1116.68423494 -186.84593021 1115.63081709 -189.875 1114.5625 C-195.6434625 1112.50671815 -201.33973115 1110.33541801 -207 1108 C-207.93199219 1107.62101562 -208.86398437 1107.24203125 -209.82421875 1106.8515625 C-216.61166511 1104.06560412 -223.29774316 1101.10165483 -229.93359375 1097.97216797 C-231.43198087 1097.26723206 -232.93222772 1096.56624477 -234.43359375 1095.86767578 C-279.61222988 1074.82909284 -321.871206 1048.23121202 -360.26318359 1016.43261719 C-362.76234405 1014.37117868 -365.29045371 1012.34583293 -367.8125 1010.3125 C-372.41773356 1006.54395302 -376.82873534 1002.59211696 -381.19921875 998.5546875 C-383.34692541 996.59569147 -385.5169167 994.6868254 -387.71777344 992.78930664 C-391.73735467 989.27562092 -395.54853925 985.5966782 -399.31640625 981.81640625 C-399.97656235 981.15720688 -400.63671844 980.49800751 -401.31687927 979.8188324 C-402.70035506 978.43603165 -404.08259083 977.05198924 -405.46362305 975.66674805 C-407.55731669 973.56769657 -409.65629874 971.4740406 -411.75585938 969.38085938 C-413.10969571 968.02636214 -414.46322175 966.67155469 -415.81640625 965.31640625 C-416.43326797 964.70156876 -417.0501297 964.08673126 -417.6856842 963.45326233 C-421.98651665 959.12961805 -426.02326966 954.62184671 -430 950 C-430.94940367 948.91698839 -431.89972404 947.8347786 -432.8515625 946.75390625 C-454.28743917 922.17930035 -473.32678746 895.00158476 -490 867 C-490.40734375 866.31921387 -490.8146875 865.63842773 -491.234375 864.93701172 C-492.57744676 862.6898354 -493.91485718 860.43939537 -495.25 858.1875 C-495.8692334 857.14674316 -495.8692334 857.14674316 -496.50097656 856.08496094 C-504 843.34697718 -504 843.34697718 -504 840 C-504.66 840 -505.32 840 -506 840 C-506.50789063 838.91203125 -507.01578125 837.8240625 -507.5390625 836.703125 C-508.23398077 835.2185654 -508.92932326 833.73420433 -509.625 832.25 C-509.98746826 831.47664307 -510.34993652 830.70328613 -510.72338867 829.90649414 C-512.85324282 825.38084721 -515.04114018 820.8944 -517.3125 816.4375 C-519.20402828 812.69512147 -520.83825944 808.99945548 -522.2265625 805.046875 C-523.17675495 802.53222426 -524.30189041 800.12389876 -525.4375 797.6875 C-527.51682956 793.18125146 -529.2721024 788.63859393 -530.91333008 783.95751953 C-531.97029657 781.08084191 -533.13878539 778.28282134 -534.3515625 775.46875 C-537.03588751 769.05832622 -539.2660247 762.55680121 -541.375 755.9375 C-541.75857666 754.73883301 -542.14215332 753.54016602 -542.53735352 752.30517578 C-547.30321372 737.1726062 -551.57786576 721.79982402 -554.57250977 706.21020508 C-555.51640264 701.33010104 -556.55341717 696.49937045 -557.97265625 691.734375 C-559.04725625 687.82822444 -559.79759183 683.9316422 -560.4375 679.9375 C-560.56310303 679.16003418 -560.68870605 678.38256836 -560.81811523 677.58154297 C-561.22012529 675.05555061 -561.6113596 672.52808183 -562 670 C-562.19577637 668.74775635 -562.19577637 668.74775635 -562.39550781 667.47021484 C-566.55854271 640.47246868 -567.35616039 613.523966 -567.31567383 586.26538086 C-567.31104222 582.88536268 -567.31798826 579.50570439 -567.33618164 576.12573242 C-567.45293552 554.21230221 -566.65805301 532.7661449 -564 511 C-563.84572037 509.72495102 -563.69144073 508.44990204 -563.53248596 507.13621521 C-561.29779033 488.87227051 -558.08231771 470.94052607 -554 453 C-553.7220459 451.76507813 -553.4440918 450.53015625 -553.15771484 449.2578125 C-549.33535488 432.50935779 -544.63553483 416.14538259 -539.3125 399.8125 C-539.03654999 398.96537445 -538.76059998 398.1182489 -538.47628784 397.24545288 C-534.22517997 384.25584237 -529.54133261 371.52478444 -524.23046875 358.92578125 C-523.45147272 357.0735018 -522.68200754 355.21716039 -521.92578125 353.35546875 C-514.89448021 336.11027778 -506.97085334 319.31726342 -498 303 C-497.25145752 301.63657471 -497.25145752 301.63657471 -496.48779297 300.24560547 C-482.42785953 274.75412774 -466.83894478 250.03507527 -449 227 C-448.18277599 225.92770608 -447.36640717 224.85475999 -446.55078125 223.78125 C-439.36134555 214.34001834 -431.8775471 205.16199789 -424.1875 196.125 C-423.75066895 195.60881104 -423.31383789 195.09262207 -422.86376953 194.56079102 C-413.71982094 183.88209214 -403.95317486 173.78648316 -393.99853516 163.86816406 C-392.23351456 162.1085652 -390.47398867 160.34359603 -388.71484375 158.578125 C-382.97912481 152.83868333 -377.20958108 147.23143157 -371 142 C-369.88155739 141.02748323 -368.76434129 140.05355387 -367.6484375 139.078125 C-360.23021332 132.65273264 -352.65923281 126.48088091 -344.89550781 120.47900391 C-342.90277111 118.92413542 -340.93102132 117.34517245 -338.9609375 115.76171875 C-315.11672969 96.71528103 -288.87055253 80.42227557 -262 66 C-261.19224121 65.56526367 -260.38448242 65.13052734 -259.55224609 64.68261719 C-250.50051977 59.8247341 -241.45313326 55.04045212 -232 51 C-230.91976563 50.53722656 -229.83953125 50.07445312 -228.7265625 49.59765625 C-228.12585938 49.34072998 -227.52515625 49.08380371 -226.90625 48.8190918 C-224.94746898 47.97742808 -222.99338796 47.12538947 -221.0390625 46.2734375 C-207.8991914 40.59449321 -194.52804965 35.67140823 -181 31 C-179.83525146 30.59467041 -179.83525146 30.59467041 -178.64697266 30.18115234 C-151.53168535 20.85229862 -123.14807011 14.29267952 -95 9 C-94.19965332 8.8448291 -93.39930664 8.6896582 -92.57470703 8.52978516 C-71.10478334 4.39853207 -49.04605953 2.27745959 -27.25 0.75 C-26.11651123 0.66999756 -24.98302246 0.58999512 -23.81518555 0.50756836 C-15.83159919 -0.00222336 -8.0368676 0 0 0 Z " fill="#02244D" transform="translate(624,47)"/>
<path d="M0 0 C12.68767759 0 24.89023148 0.03841891 37.4375 1.25 C38.88630828 1.38342092 40.33512021 1.51680216 41.78393555 1.65014648 C56.24352277 3.01230963 70.63090081 4.89209474 85 7 C86.16813232 7.17080078 87.33626465 7.34160156 88.53979492 7.51757812 C94.70880701 8.44034011 100.67276235 9.58329011 106.70703125 11.16796875 C109.70254251 11.9248417 112.70661042 12.59077427 115.72900391 13.23022461 C139.97002386 18.39557505 163.82481085 25.21306914 187 34 C188.1034375 34.41121094 189.206875 34.82242188 190.34375 35.24609375 C195.70838893 37.27111216 200.89225988 39.36033535 205.96484375 42.03125 C209.33124803 43.63368428 212.85729363 44.78256066 216.38671875 45.97265625 C219.14763727 47.05803976 221.45983782 48.47285602 224 50 C225.62313932 50.70094806 227.24735922 51.39961176 228.87939453 52.07958984 C264.09491011 67.36424259 297.56978156 88.68915085 328 112 C329.04671875 112.79019531 330.0934375 113.58039063 331.171875 114.39453125 C338.42069643 119.8855679 345.4158495 125.62408356 352.31005859 131.55273438 C354.07012729 133.06005701 355.84061103 134.55439951 357.61328125 136.046875 C363.65753465 141.15265511 369.48004546 146.32410634 375.00390625 152 C376.87325175 153.87300371 378.79779684 155.59856029 380.8125 157.3125 C388.42650848 163.86054729 395.5320381 171.10598491 402.03515625 178.75390625 C404.18994908 181.21713861 406.4181131 183.59960414 408.65869141 185.98461914 C414.72704564 192.44745956 420.48005065 199.05767462 426 206 C426.90777121 207.11676658 427.81668852 208.23260221 428.7265625 209.34765625 C446.05963649 230.66637931 462.13275575 253.21191728 475.86328125 277.02978516 C477.14921623 279.25862865 478.45020166 281.47843316 479.75 283.69921875 C485.43053702 293.46629798 490.84267926 303.35394291 496.0625 313.375 C496.61067383 314.42671387 497.15884766 315.47842773 497.72363281 316.56201172 C500.34733596 321.64287276 502.80037203 326.71850844 505 332 C505.78614647 333.7323891 506.57697428 335.46265741 507.37109375 337.19140625 C510.04774863 343.06080633 512.57632324 348.98527774 515.0625 354.9375 C515.69381836 356.42926758 515.69381836 356.42926758 516.33789062 357.95117188 C518.84131692 363.93998859 521.03054647 369.95733139 523.03173828 376.13110352 C523.93957807 378.82097377 524.94435339 381.43575699 526.01953125 384.0625 C537.2258695 411.52976452 546.95355657 444.36927892 549.74243164 473.99902344 C549.97581858 476.22663567 549.97581858 476.22663567 550.9375 479.1875 C552.36718773 484.31755599 553.01321182 489.47092973 553.70263672 494.74609375 C554.03282453 497.24879811 554.37768446 499.74929183 554.72265625 502.25 C554.98227707 504.16659816 555.24139034 506.08326514 555.5 508 C555.61851318 508.85722656 555.73702637 509.71445312 555.85913086 510.59765625 C556.27384514 513.72842527 556.64137919 516.86227983 557 520 C557.12707336 521.05701111 557.12707336 521.05701111 557.25671387 522.13537598 C559.17781598 538.50117719 559.31154806 554.83203172 559.26074219 571.28417969 C559.24939044 574.9925512 559.25609945 578.70063414 559.26762581 582.40899563 C559.33713859 608.82085214 557.50492711 634.81358171 554 661 C553.84772949 662.14243164 553.69545898 663.28486328 553.53857422 664.46191406 C553.05999462 667.99746343 552.56467167 671.53022943 552.0625 675.0625 C551.91699707 676.11945068 551.77149414 677.17640137 551.62158203 678.26538086 C550.44036092 686.31580897 548.55184881 694.11312265 546.51504517 701.97769165 C545.69294057 705.20565903 544.93600779 708.44839361 544.17578125 711.69140625 C540.85066821 725.77898819 537.34863368 739.78497509 533.3125 753.6875 C532.95647705 754.91992432 532.6004541 756.15234863 532.23364258 757.42211914 C528.89197976 768.76125334 525.00584532 779.84565 520.38671875 790.73046875 C512.61565613 808.64884591 512.61565613 808.64884591 506 827 C500.40385084 826.29010958 495.27069452 824.57037644 489.9375 822.8125 C483.96103471 820.8619499 477.98761744 818.96440403 471.921875 817.30859375 C470.95902588 817.04522217 469.99617676 816.78185059 469.00415039 816.51049805 C467.15201466 816.01041979 465.29705 815.52068361 463.43920898 815.04223633 C462.60719971 814.81689209 461.77519043 814.59154785 460.91796875 814.359375 C460.18344482 814.16827148 459.4489209 813.97716797 458.69213867 813.78027344 C458.13373291 813.5227832 457.57532715 813.26529297 457 813 C455.6938784 809.0816352 456.61726039 808.06652496 458.359375 804.3828125 C459.15988281 802.65720093 459.15988281 802.65720093 459.9765625 800.89672852 C460.4101709 799.97574875 460.4101709 799.97574875 460.85253906 799.03616333 C468.07719775 783.65108952 474.18376508 767.9683784 480 752 C480.41556152 750.89414551 480.83112305 749.78829102 481.25927734 748.64892578 C484.6498853 739.48027137 487.20440569 730.20739947 489.625 720.75 C490.38525731 717.80657136 491.14921347 714.86411337 491.9140625 711.921875 C492.09543762 711.22058472 492.27681274 710.51929443 492.46368408 709.79675293 C493.44460845 706.02907845 494.49202295 702.29548269 495.6484375 698.578125 C500.24216489 683.57467199 501.82514832 667.50805102 504 652 C504.10350769 651.26803406 504.20701538 650.53606812 504.31365967 649.78192139 C507.53368805 626.73973383 508.37176461 603.8076597 508.375 580.5625 C508.37690338 579.27824127 508.37880676 577.99398254 508.38076782 576.67080688 C508.37675765 552.80436178 506.82908693 529.34561119 503.25 505.75 C503.11928101 504.87680115 502.98856201 504.00360229 502.85388184 503.10394287 C497.61117074 468.23115782 489.53024463 434.15512632 476.83886719 401.20556641 C475.23541857 396.9897472 473.78003166 392.72163559 472.30078125 388.4609375 C453.66811246 338.88572865 426.37729329 291.1116894 393 250 C392.24332031 249.0615625 391.48664063 248.123125 390.70703125 247.15625 C388.48825423 244.42303088 386.249588 241.70790813 384 239 C383.37424072 238.24468994 383.37424072 238.24468994 382.73583984 237.47412109 C371.87097257 224.38716907 360.25333977 212.16180673 348.25 200.125 C347.43471832 199.30570007 347.43471832 199.30570007 346.60296631 198.46984863 C340.58303763 192.4274533 334.51597995 186.51255147 328 181 C326.86993261 180.01565437 325.74099668 179.03000803 324.61328125 178.04296875 C317.47793801 171.85302915 310.21943717 165.89733725 302.65527344 160.23876953 C301.55446667 159.41495043 300.45613693 158.58781075 299.36035156 157.75732422 C282.68105929 145.12312717 265.17069487 133.38186422 247 123 C246.03344482 122.4416748 246.03344482 122.4416748 245.04736328 121.87207031 C225.38754531 110.55064587 205.0690785 100.41773465 184 92 C183.01 91.59394531 182.02 91.18789062 181 90.76953125 C176.07487995 88.76100573 171.09776808 86.91995913 166.08984375 85.12890625 C163.84335436 84.30812821 161.60760712 83.45776286 159.37890625 82.58984375 C150.93308992 79.30216771 142.47269583 76.62750297 133.71875 74.2890625 C129.55906383 73.1722392 125.44407894 71.93418284 121.32788086 70.66748047 C112.61635295 67.98942198 103.97126301 65.66202518 95 64 C93.85313721 63.78029541 93.85313721 63.78029541 92.68310547 63.55615234 C80.28180063 61.19456873 67.83554054 59.37520451 55.3125 57.8125 C54.63785706 57.72791534 53.96321411 57.64333069 53.26812744 57.55618286 C39.92259075 55.89434802 26.69066344 54.86582708 13.25 54.4375 C8.8775 54.293125 4.505 54.14875 0 54 C0 36.18 0 18.36 0 0 Z " fill="#F75A0C" transform="translate(638,45)"/>
<path d="M0 0 C0.96153223 -0.00085442 1.92306445 -0.00170885 2.91373402 -0.00258917 C6.1257818 -0.00423226 9.337777 0.00125823 12.54981995 0.00672913 C14.85624185 0.00701128 17.16266384 0.00685272 19.46908569 0.00628662 C25.72467789 0.00599973 31.98025091 0.01187898 38.23583865 0.01886058 C44.77548039 0.02511214 51.31512258 0.02569934 57.85476685 0.02688599 C68.82929314 0.02947431 79.80381271 0.03588695 90.77833557 0.04481506 C102.08009303 0.05399981 113.38184857 0.06107544 124.68360901 0.06532288 C125.72928586 0.06571696 125.72928586 0.06571696 126.7960875 0.06611901 C130.29346572 0.06742408 133.79084395 0.06868778 137.28822219 0.06993091 C166.28371052 0.08029073 195.2791919 0.09797243 224.27467346 0.12025452 C223.89556186 0.55271984 223.51645027 0.98518516 223.12585044 1.4307555 C219.76623246 5.30041285 216.66461588 9.27478976 213.61897278 13.39933777 C205.16720558 24.14432168 196.34703033 33.5130082 182.26771545 35.42829895 C171.38992444 36.55805745 160.42205953 36.18434555 149.51172543 35.82669973 C143.99233295 35.67524037 138.47288215 35.67828802 132.95173645 35.66447449 C122.52206178 35.61635936 112.09900077 35.43985084 101.67186284 35.21196473 C86.37468215 34.88366805 71.0755028 34.75554349 55.7755928 34.62222481 C53.50675122 34.60213605 51.23791042 34.58195893 48.96907043 34.56169128 C47.86061272 34.55199094 46.752155 34.54229059 45.61010766 34.5322963 C39.06825721 34.47076352 32.52817925 34.37359799 25.98734903 34.24299502 C21.91480287 34.16343842 17.84208662 34.09928244 13.76924324 34.03705025 C11.89471171 34.00429152 10.02028984 33.96423357 8.14609337 33.91597176 C-12.7053502 33.38313474 -30.1904394 38.40046948 -45.72532654 53.12025452 C-55.47652935 63.11180387 -61.68950539 76.17366258 -62.72532654 90.12025452 C-62.86454529 91.6400592 -62.86454529 91.6400592 -63.00657654 93.19056702 C-63.73432732 108.00029551 -57.8050174 122.41654855 -48.54563904 133.79994202 C-37.85694836 145.32970999 -23.42055456 152.50686432 -7.6691246 153.21234894 C-5.50550659 153.24645017 -3.34379338 153.25228772 -1.17991638 153.24623108 C-0.36552597 153.24809921 0.44886444 153.24996735 1.28793335 153.25189209 C3.04532686 153.25587308 4.80272547 153.2579688 6.56012344 153.25835419 C10.33322963 153.26181449 14.10617033 153.2832451 17.87921715 153.30358505 C24.88084932 153.34129285 31.88230273 153.37289132 38.88404846 153.3707428 C72.13950367 153.3727502 100.4669446 153.62120427 126.27467346 177.12025452 C127.04037659 177.79314514 127.80607971 178.46603577 128.59498596 179.15931702 C144.91584578 194.34283469 155.14583329 216.95393832 156.27467346 239.12025452 C156.35395081 240.43509827 156.35395081 240.43509827 156.43482971 241.77650452 C157.17171048 265.1003828 149.15256026 286.77230543 133.89967346 304.30775452 C132.37652046 305.92951027 130.83478005 307.53401549 129.27467346 309.12025452 C128.51541565 309.89240295 127.75615784 310.66455139 126.97389221 311.46009827 C117.49277856 320.53776028 105.64762285 326.85527927 93.27467346 331.12025452 C92.59089976 331.36849126 91.90712606 331.616728 91.20263195 331.87248707 C82.17972973 334.769947 73.21712004 334.52135826 63.85987854 334.46083069 C62.01591506 334.45998317 60.17195057 334.46046199 58.32798767 334.4621582 C53.35143503 334.46301471 48.37510177 334.44544496 43.39859986 334.42443633 C38.18694834 334.40561186 32.97529112 334.40391455 27.76361084 334.40036011 C17.90766526 334.39105654 8.05182018 334.3664657 -1.80408126 334.33631164 C-13.03022708 334.30271494 -24.25637784 334.28626839 -35.48256147 334.27122533 C-58.56353875 334.23991459 -81.644427 334.18718707 -104.72532654 334.12025452 C-98.00658503 320.60118442 -89.24542675 307.94427492 -74.72532654 302.12025452 C-52.82959575 296.7940865 -28.45558297 299.12799204 -6.13438129 299.82774889 C4.40855149 300.15325679 14.95357011 300.27437461 25.50039005 300.40403664 C28.05101488 300.43560017 30.60162859 300.46789471 33.15223694 300.50076294 C33.97993229 300.51132975 34.80762765 300.52189655 35.66040468 300.53278357 C40.53212864 300.5994096 45.40173877 300.69907431 50.27211952 300.8312825 C53.30223568 300.91306652 56.33257193 300.98366653 59.36297798 301.05376434 C60.75460119 301.08934936 62.14609363 301.13063797 63.53735161 301.1784153 C79.91656544 301.73909053 94.36732781 297.71734197 107.18092346 287.15541077 C119.34612747 275.3306509 125.19562284 259.35649454 125.71217346 242.62025452 C125.3680606 228.07774569 119.37921055 214.76544807 109.48170471 204.18666077 C105.72912042 200.67317919 101.61551732 197.85470056 97.27467346 195.12025452 C96.65592346 194.71935608 96.03717346 194.31845764 95.39967346 193.90541077 C87.83967725 189.26791309 80.44536633 187.67193097 71.69093323 187.71961975 C70.32317245 187.70915115 70.32317245 187.70915115 68.92778015 187.69847107 C65.94045035 187.67862249 62.95346933 187.67899494 59.96607971 187.67884827 C57.87296633 187.66706196 55.77986132 187.65369469 53.68676758 187.63882446 C48.19158056 187.6027391 42.69646766 187.58246959 37.20118713 187.567276 C28.41078282 187.54239569 19.62054233 187.50252721 10.83028984 187.44537544 C7.77383379 187.42915477 4.71753487 187.42527871 1.66104126 187.42236328 C-0.2300391 187.41257842 -2.12111705 187.40231376 -4.01219177 187.39149475 C-4.85041977 187.3940477 -5.68864777 187.39660065 -6.55227661 187.39923096 C-27.96368966 187.21650385 -48.40652179 177.39100666 -64.72532654 164.12025452 C-66.21226013 162.9504303 -66.21226013 162.9504303 -67.72923279 161.75697327 C-70.95907824 158.91454083 -73.54535312 155.9533447 -76.16282654 152.55775452 C-76.6387323 151.94061584 -77.11463806 151.32347717 -77.60496521 150.68763733 C-89.2866427 135.286273 -97.20957025 116.3276285 -96.97532654 96.74525452 C-96.96783386 95.91018372 -96.96034119 95.07511292 -96.95262146 94.21473694 C-96.84435624 87.99039419 -96.34128448 82.15260011 -94.72532654 76.12025452 C-94.4069281 74.90209045 -94.08852966 73.68392639 -93.76048279 72.42884827 C-89.68944573 57.79024856 -83.03561628 45.35410442 -72.72532654 34.12025452 C-71.89259216 33.2063092 -71.05985779 32.29236389 -70.20188904 31.35072327 C-51.61379005 11.86320013 -27.09215734 -0.08865955 0 0 Z " fill="#03254D" transform="translate(454.72532653808594,339.87974548339844)"/>
<path d="M0 0 C-4.29286075 5.13542745 -8.79790983 9.91946997 -13.55859375 14.62109375 C-14.61966087 15.67648094 -14.61966087 15.67648094 -15.7021637 16.75318909 C-18.69843199 19.73326658 -21.70065058 22.70732249 -24.70239258 25.68188477 C-26.90656844 27.86784232 -29.10763343 30.05689934 -31.30859375 32.24609375 C-31.97547714 32.9046788 -32.64236053 33.56326385 -33.32945251 34.24180603 C-36.48940795 37.38547213 -39.5375641 40.57008962 -42.44750977 43.94750977 C-46.2700843 48.37569386 -50.37354561 52.48197232 -54.53125 56.59375 C-55.32599731 57.38471069 -56.12074463 58.17567139 -56.9395752 58.99060059 C-60.30535548 62.34018573 -63.67711048 65.6837327 -67.04833984 69.02783203 C-69.52390227 71.48520939 -71.99638083 73.94566058 -74.46875 76.40625 C-75.21999146 77.14919312 -75.97123291 77.89213623 -76.74523926 78.65759277 C-80.09409299 81.99103219 -83.35102571 85.34763974 -86.43164062 88.93164062 C-90.59029555 93.75750376 -95.10071745 98.20684234 -99.625 102.6875 C-100.53072754 103.58944092 -101.43645508 104.49138184 -102.36962891 105.4206543 C-105.72921306 108.76605444 -109.09331262 112.10688392 -112.45776367 115.4473877 C-115.76634351 118.732918 -119.07102481 122.02233791 -122.375 125.3125 C-123.23561035 126.16481201 -124.0962207 127.01712402 -124.98291016 127.89526367 C-129.31829403 132.21313516 -133.50499623 136.58816727 -137.47143555 141.2487793 C-139.84837013 143.9719468 -142.41350067 146.47658602 -145 149 C-143.59160505 153.29445018 -141.54145224 155.87046479 -138.4375 159.125 C-135.03426997 162.74909947 -131.79046319 166.42230355 -128.6875 170.3125 C-125.13213791 174.72366606 -121.3805364 178.87811726 -117.5 183 C-112.83293404 187.95732978 -108.43420213 193.03828143 -104.17578125 198.35546875 C-101.869683 201.15839248 -99.45848469 203.83003275 -97 206.5 C-93.72581577 210.05670244 -90.59357567 213.67161811 -87.5625 217.4375 C-84.34056899 221.43223986 -80.99344505 225.24554349 -77.5 229 C-73.21044887 233.61004336 -69.19589328 238.37782956 -65.24609375 243.28515625 C-62.9116941 246.10673495 -60.48009402 248.80590712 -58 251.5 C-53.88621091 255.9698512 -50.02912703 260.59044893 -46.21484375 265.31640625 C-43.33401493 268.80693429 -40.29065597 272.13274068 -37.2421875 275.4765625 C-34.95484096 278.05082358 -32.78451729 280.69289489 -30.625 283.375 C-26.94363311 287.92860712 -23.07225527 292.23582516 -19.08642578 296.51904297 C-16.09587359 299.75176204 -13.26228315 303.06687666 -10.5 306.5 C-7.25471153 310.53043891 -3.88536256 314.38983364 -0.375 318.1875 C0.0888208 318.68942871 0.5526416 319.19135742 1.03051758 319.70849609 C1.48322021 320.19785645 1.93592285 320.6872168 2.40234375 321.19140625 C4.68091446 323.65500375 6.94937662 326.12463185 9.1875 328.625 C9.73792969 329.23601562 10.28835938 329.84703125 10.85546875 330.4765625 C12 332 12 332 12 334 C4.83397581 334.35782886 -2.32971732 334.60125985 -9.50268555 334.76904297 C-11.93682897 334.83903689 -14.37039245 334.93427644 -16.80249023 335.05615234 C-38.1249464 336.09712559 -38.1249464 336.09712559 -44.45141602 330.96191406 C-47.33221225 328.10726658 -49.71300607 325.01400884 -51.92549133 321.62133789 C-53.28712103 319.56675993 -54.87671814 317.79336257 -56.5625 316 C-58.62147734 313.6207373 -60.66013044 311.22442076 -62.69921875 308.828125 C-63.71581756 307.63513685 -64.73275588 306.44243795 -65.75 305.25 C-66.522229 304.34447388 -66.522229 304.34447388 -67.31005859 303.4206543 C-70.6910199 299.47514717 -74.15102043 295.61880634 -77.6875 291.8125 C-81.05583447 288.18716792 -84.2792202 284.48767607 -87.375 280.625 C-90.90717609 276.23193511 -94.6389592 272.10082942 -98.5 268 C-103.14336352 263.06826198 -107.51255208 258.01167673 -111.75 252.72265625 C-115.16386198 248.59164618 -118.81267772 244.6884496 -122.453125 240.7578125 C-125.70878041 237.23251692 -128.86316403 233.63082588 -132 230 C-132.95293848 228.90087993 -133.90608323 227.80193867 -134.859375 226.703125 C-139.38223332 221.48837293 -143.90273596 216.27160856 -148.4140625 211.046875 C-153.88053228 204.72020738 -159.37340729 198.42654963 -164.98828125 192.23046875 C-168.03236118 188.85538207 -171.01935204 185.43109958 -174 182 C-172.21697508 176.99537324 -169.59335004 172.49116306 -167 167.875 C-166.32324219 166.65876953 -166.32324219 166.65876953 -165.6328125 165.41796875 C-163.83631985 162.20235321 -162.04465346 159.06698019 -160 156 C-160.79277344 155.97421875 -161.58554687 155.9484375 -162.40234375 155.921875 C-175.08484873 155.30526702 -187.49718361 153.13549588 -200 151 C-198.64768813 147.97022571 -197.14519457 145.91527387 -194.76953125 143.609375 C-194.13080078 142.98160156 -193.49207031 142.35382813 -192.83398438 141.70703125 C-192.16689453 141.06121094 -191.49980469 140.41539062 -190.8125 139.75 C-189.50393952 138.47659488 -188.19794451 137.20054814 -186.89453125 135.921875 C-186.02598511 135.08027832 -186.02598511 135.08027832 -185.13989258 134.22167969 C-183.27307155 132.2835084 -181.5182764 130.30139535 -179.76196289 128.26416016 C-175.9958792 123.93282498 -171.99510496 119.88453023 -167.9140625 115.8515625 C-167.17167328 115.1129599 -166.42928406 114.3743573 -165.66439819 113.6133728 C-163.32036882 111.28144722 -160.97309879 108.95282743 -158.625 106.625 C-155.51017311 103.53670378 -152.39863372 100.44514948 -149.2890625 97.3515625 C-148.57247467 96.64327301 -147.85588684 95.93498352 -147.11758423 95.20523071 C-146.45954803 94.55049774 -145.80151184 93.89576477 -145.12353516 93.22119141 C-144.54286285 92.64575592 -143.96219055 92.07032043 -143.36392212 91.47744751 C-141.89708029 90.02591204 -141.89708029 90.02591204 -141 88 C-140.34 88 -139.68 88 -139 88 C-138.75099945 87.42535507 -138.5019989 86.85071014 -138.24545288 86.25865173 C-136.8162888 83.66683636 -135.17641021 81.94319055 -133.07275391 79.86157227 C-132.2649649 79.05716202 -131.4571759 78.25275177 -130.62490845 77.42396545 C-129.75095428 76.56347092 -128.87700012 75.70297638 -127.9765625 74.81640625 C-127.07884125 73.92388657 -126.18112 73.03136688 -125.25619507 72.11180115 C-122.87083938 69.74124597 -120.48153375 67.37483426 -118.08978271 65.01074219 C-114.72724827 61.68617794 -111.36981318 58.35649499 -108.01522827 55.02391052 C-106.23057946 53.25147822 -104.44326385 51.48172609 -102.65298462 49.71498108 C-101.8388913 48.90741867 -101.02479797 48.09985626 -100.18603516 47.26782227 C-99.47258942 46.56262955 -98.75914368 45.85743683 -98.02407837 45.13087463 C-95.8981369 42.96525837 -95.8981369 42.96525837 -93.8633728 40.23326111 C-93.24845978 39.49628494 -92.63354675 38.75930878 -92 38 C-91.34 38 -90.68 38 -90 38 C-89.72138123 37.4137384 -89.44276245 36.82747681 -89.15570068 36.22344971 C-69.56062074 -1.47547648 -38.49466241 -4.83577949 0 0 Z " fill="#02244D" transform="translate(901,340)"/>
<path d="M0 0 C1.29713213 3.8913964 0.14703153 6.28293123 -1.125 10 C-3.06083622 15.91797391 -4.81947366 21.84580315 -6.375 27.875 C-6.57633545 28.65174072 -6.7776709 29.42848145 -6.98510742 30.22875977 C-7.41866637 31.90224739 -7.85183717 33.57583561 -8.28466797 35.24951172 C-12.1123728 49.96723277 -16.08402985 64.63213852 -20.54296875 79.171875 C-22.21340873 84.65559004 -23.77668673 90.16905105 -25.34225464 95.68347168 C-27.63285192 103.75077824 -29.93026349 111.81614956 -32.22827148 119.88134766 C-32.8738189 122.14840371 -33.51866288 124.41566018 -34.1628418 126.68310547 C-35.10020816 129.98197313 -36.04008262 133.28011708 -36.98046875 136.578125 C-37.26899216 137.59569885 -37.55751556 138.61327271 -37.8547821 139.66168213 C-38.12208633 140.59736023 -38.38939056 141.53303833 -38.66479492 142.49707031 C-38.89921799 143.32088196 -39.13364105 144.1446936 -39.37516785 144.99346924 C-40 147 -40 147 -41 149 C-40.14921875 148.97679687 -39.2984375 148.95359375 -38.421875 148.9296875 C-22.03535983 148.68563302 -6.02205551 150.64342412 10 154 C9.42976106 158.39487693 7.79937615 161.27536668 5.4140625 164.98046875 C4.68087844 166.13740905 3.94948124 167.29548336 3.21972656 168.45458984 C2.84803345 169.043349 2.47634033 169.63210815 2.09338379 170.2387085 C-0.96776533 175.16980038 -3.76562935 180.26294257 -6.625 185.3125 C-8.03352231 187.7899942 -9.44425309 190.26622665 -10.85546875 192.7421875 C-11.20656204 193.35841476 -11.55765533 193.97464203 -11.91938782 194.60954285 C-15.22473193 200.4054021 -18.57197306 206.17638075 -21.9375 211.9375 C-22.49832275 212.8975293 -23.05914551 213.85755859 -23.63696289 214.84667969 C-26.45682191 219.66753645 -29.28380833 224.48416962 -32.11581421 229.29789734 C-40.18006373 243.00538889 -48.17506436 256.74315366 -55.96484375 270.609375 C-58.90401187 275.84081299 -61.88716164 281.04626022 -64.875 286.25 C-73.06240957 300.53386387 -81.00493283 314.95573189 -88.96484375 329.3671875 C-93.18111807 336.99264276 -97.41730795 344.58572587 -102 352 C-103.50940457 348.98119085 -102.39484398 347.10076821 -101.5 343.875 C-101.31695313 343.21306641 -101.13390625 342.55113281 -100.9453125 341.86914062 C-100.30632259 339.57666058 -99.65404492 337.28822817 -99 335 C-98.773125 334.19852539 -98.54625 333.39705078 -98.3125 332.57128906 C-94.34931636 318.60860539 -90.0921565 304.73806852 -85.80838013 290.87139893 C-81.12952309 275.72252938 -76.51830789 260.55379703 -71.9375 245.375 C-71.5981543 244.25085693 -71.25880859 243.12671387 -70.90917969 241.96850586 C-67.44066496 230.47387454 -63.98457134 218.97571892 -60.5703125 207.46484375 C-60.30954422 206.58580383 -60.04877594 205.70676392 -59.78010559 204.80108643 C-58.57831213 200.74716605 -57.37951301 196.69239116 -56.18530273 192.63623047 C-55.97376556 191.92020157 -55.76222839 191.20417267 -55.54428101 190.46644592 C-54.98465653 188.57217867 -54.42694059 186.67734787 -53.86938477 184.7824707 C-53 182 -53 182 -52 180 C-52.93972656 179.97421875 -53.87945313 179.9484375 -54.84765625 179.921875 C-70.34374972 179.33938689 -85.65344875 177.10601633 -101 175 C-99.61873571 171.31842978 -97.95191497 167.9977555 -95.98046875 164.59765625 C-95.37734863 163.55440186 -94.77422852 162.51114746 -94.15283203 161.4362793 C-93.50427246 160.32293213 -92.85571289 159.20958496 -92.1875 158.0625 C-91.50616681 156.88788158 -90.82501701 155.71315675 -90.14404297 154.53833008 C-84.95822445 145.60243808 -79.7096572 136.7038898 -74.44140625 127.81640625 C-68.2764494 117.40998804 -62.17427779 106.96647658 -56.06494141 96.52734375 C-54.1324181 93.22545681 -52.19704213 89.92524655 -50.26171875 86.625 C-43.45657154 75.00620501 -36.7630408 63.33030122 -30.15625 51.59765625 C-25.14864062 42.70637445 -20.07986156 33.85015031 -15 25 C-14.49629883 24.12166504 -13.99259766 23.24333008 -13.47363281 22.33837891 C-11.98500095 19.74492537 -10.4931084 17.1533784 -9 14.5625 C-8.33266846 13.39992676 -8.33266846 13.39992676 -7.65185547 12.21386719 C-5.23819052 8.03633466 -2.72574801 3.98135878 0 0 Z " fill="#F75A0E" transform="translate(711,353)"/>
<path d="M0 0 C37.73457207 0 37.73457207 0 46.04296875 7.85546875 C50.0767659 12.27573748 51.62045283 16.77844754 51.34765625 22.88671875 C50.45100123 28.33717228 48.28686553 33.24008082 44.0625 36.875 C41.42599681 38.70441037 38.75895764 40.36609954 36 42 C36.40839111 42.57967529 36.81678223 43.15935059 37.23754883 43.7565918 C39.09765051 46.39897676 40.95509725 49.04321727 42.8125 51.6875 C43.45509766 52.59951172 44.09769531 53.51152344 44.75976562 54.45117188 C45.38173828 55.33740234 46.00371094 56.22363281 46.64453125 57.13671875 C47.21534424 57.94842529 47.78615723 58.76013184 48.37426758 59.59643555 C50.01021701 62.01510533 51.52104763 64.48284266 53 67 C48.15253968 67.73261687 43.82313758 67.99177634 39 67 C35.26523761 63.61115868 33.1814925 59.50714622 30.875 55.0625 C29.68298395 52.80279646 28.45207865 50.56309822 27.1796875 48.34765625 C26.66132324 47.34742432 26.14295898 46.34719238 25.60888672 45.31665039 C22.07881837 41.7157162 22.07881837 41.7157162 11 42 C11 50.25 11 58.5 11 67 C7.37 67 3.74 67 0 67 C0 44.89 0 22.78 0 0 Z " fill="#0E2B51" transform="translate(319,752)"/>
<path d="M0 0 C37.34177215 0 37.34177215 0 44.15625 5.8515625 C44.5996875 6.43679688 45.043125 7.02203125 45.5 7.625 C45.9640625 8.21539063 46.428125 8.80578125 46.90625 9.4140625 C50.43703837 14.53370564 49.56857028 21.03981503 49 27 C47.35893372 31.82753129 44.68653845 34.84533726 40.375 37.5 C37 39 37 39 34 39 C38.46490965 46.32976636 43.30099633 53.26866022 48.44262695 60.13500977 C52 64.90324472 52 64.90324472 52 66 C47.19903787 67.46470031 42.61307852 68.28163297 38 66 C31.3965593 59.42242531 24.95955233 49.87865698 22 41 C18.37 41 14.74 41 11 41 C11 49.25 11 57.5 11 66 C7.37 66 3.74 66 0 66 C0 44.22 0 22.44 0 0 Z " fill="#09274E" transform="translate(926,753)"/>
<path d="M0 0 C4.29 0 8.58 0 13 0 C16.8617239 8.35407795 20.44770082 16.79739001 23.9375 25.3125 C27.4511272 33.86761552 31.00518658 42.40051736 34.66870117 50.89233398 C40 63.33724555 40 63.33724555 40 66 C36.04 66 32.08 66 28 66 C27.16235732 64.04350603 26.33000941 62.08474444 25.5 60.125 C25.0359375 59.03445313 24.571875 57.94390625 24.09375 56.8203125 C23 54 23 54 23 52 C7.16 52.495 7.16 52.495 -9 53 C-10.65 57.29 -12.3 61.58 -14 66 C-17.96 66 -21.92 66 -26 66 C-25.38905929 60.83734873 -23.76262903 56.59548335 -21.71875 51.875 C-21.38891113 51.09847076 -21.05907227 50.32194153 -20.71923828 49.5218811 C-19.6519333 47.01208191 -18.57593474 44.50611005 -17.5 42 C-16.4026238 39.42424474 -15.30760912 36.8474943 -14.21276855 34.2706604 C-13.48929136 32.56818322 -12.76509218 30.86601268 -12.04016113 29.16415405 C-9.13557832 22.34092733 -6.29392679 15.49438492 -3.5 8.625 C-2.94989258 7.27341797 -2.94989258 7.27341797 -2.38867188 5.89453125 C-1.59065113 3.93041658 -0.79497311 1.96535018 0 0 Z " fill="#09264C" transform="translate(655,753)"/>
<path d="M0 0 C15.18 0 30.36 0 46 0 C46 3.3 46 6.6 46 10 C34.45 10 22.9 10 11 10 C11 15.61 11 21.22 11 27 C21.89 27 32.78 27 44 27 C44 30.63 44 34.26 44 38 C33.11 38 22.22 38 11 38 C11 43.94 11 49.88 11 56 C22.55 56 34.1 56 46 56 C46 59.3 46 62.6 46 66 C30.82 66 15.64 66 0 66 C0 44.22 0 22.44 0 0 Z " fill="#0A284F" transform="translate(832,753)"/>
<path d="M0 0 C3.63 0 7.26 0 11 0 C11 8.91 11 17.82 11 27 C12.32 27 13.64 27 15 27 C15.21269531 26.46890625 15.42539062 25.9378125 15.64453125 25.390625 C17.52245021 22.07856043 20.08030589 19.49053915 22.6875 16.75 C23.77294137 15.59320362 24.8575795 14.43565303 25.94140625 13.27734375 C26.46621582 12.71772949 26.99102539 12.15811523 27.53173828 11.58154297 C29.98435577 8.93969792 32.34385785 6.21994623 34.6953125 3.48828125 C35.75115971 2.28385674 36.86742512 1.13257488 38 0 C41.2578125 -0.1953125 41.2578125 -0.1953125 45.125 -0.125 C47.04699219 -0.09792969 47.04699219 -0.09792969 49.0078125 -0.0703125 C50.48894531 -0.03550781 50.48894531 -0.03550781 52 0 C48.32885194 4.36568959 44.54769662 8.61352552 40.6875 12.8125 C40.21884521 13.32522461 39.75019043 13.83794922 39.26733398 14.36621094 C36.95621204 16.89117194 34.62696443 19.38789332 32.25390625 21.85546875 C31.42761719 22.72816406 30.60132813 23.60085938 29.75 24.5 C29.00234375 25.2734375 28.2546875 26.046875 27.484375 26.84375 C25.7596957 28.83527441 25.7596957 28.83527441 26.24975586 30.93603516 C27.05803198 33.15964931 27.94960228 34.42208823 29.51953125 36.1796875 C30.04184326 36.77225342 30.56415527 37.36481934 31.10229492 37.9753418 C31.6666626 38.602229 32.23103027 39.22911621 32.8125 39.875 C33.99250209 41.21196199 35.17218169 42.54920867 36.3515625 43.88671875 C36.95516602 44.56653809 37.55876953 45.24635742 38.18066406 45.94677734 C41.03980312 49.17347614 43.86843218 52.42579022 46.6875 55.6875 C47.19192627 56.26290527 47.69635254 56.83831055 48.21606445 57.43115234 C50.56233104 60.1447413 52.61483638 62.67074708 54 66 C42.15680113 67.516199 42.15680113 67.516199 37.3828125 64.16015625 C35.0628974 61.54715579 33.02642808 58.84610685 31 56 C29.44825689 54.0953521 27.88578314 52.19939439 26.3125 50.3125 C24.27887264 47.81909602 22.25273966 45.32495099 20.27734375 42.78515625 C17.0980111 38.80895761 16.25563817 38.05112763 11 37 C11 46.57 11 56.14 11 66 C7.37 66 3.74 66 0 66 C0 44.22 0 22.44 0 0 Z " fill="#08244B" transform="translate(535,753)"/>
<path d="M0 0 C2.33203125 2.171875 2.33203125 2.171875 4 4 C2.50902342 7.7952131 0.24299151 9.61042731 -3 12 C-3.53109375 11.65066406 -4.0621875 11.30132813 -4.609375 10.94140625 C-5.31578125 10.48636719 -6.0221875 10.03132812 -6.75 9.5625 C-7.44609375 9.11003906 -8.1421875 8.65757812 -8.859375 8.19140625 C-14.12031395 5.26332892 -20.12772605 5.3832375 -26 6 C-29.26935144 7.37712361 -29.26935144 7.37712361 -31 10 C-31.75 13 -31.75 13 -31 16 C-28.19644027 19.43521725 -25.86622597 20.64967407 -21.60546875 21.7109375 C-20.04795898 22.12472656 -20.04795898 22.12472656 -18.45898438 22.546875 C-16.2908616 23.0957013 -14.12159472 23.64002895 -11.95117188 24.1796875 C-5.45125125 25.91621546 -0.38628345 27.71268136 4 33 C6.78153997 38.03767795 6.84481566 43.39349609 6 49 C3.92233305 54.31686425 0.59175449 58.07200458 -4.25 61.0625 C-12.7005567 64.68962148 -23.61144562 64.94378984 -32.16796875 61.52734375 C-36.91165739 59.33371668 -41.49983432 56.96360225 -45 53 C-43.47291037 49.56404834 -41.40072955 46.88087546 -39 44 C-36.52432105 45.10030176 -34.71371449 46.24108253 -32.625 48 C-26.56793313 52.61490809 -19.38883989 52.92484806 -12 52 C-8.29459761 50.22457193 -8.29459761 50.22457193 -6 47 C-5.58326793 43.54199641 -5.58326793 43.54199641 -6 40 C-8.62756844 37.51185055 -10.98225239 36.52941446 -14.484375 35.7890625 C-15.33773437 35.59570312 -16.19109375 35.40234375 -17.0703125 35.203125 C-18.84023531 34.82127576 -20.61106195 34.44358932 -22.3828125 34.0703125 C-30.50403768 32.21681967 -37.28657327 29.16440863 -42 22 C-43.76356504 16.70930489 -44.33050405 10.78070742 -41.87109375 5.640625 C-31.91747895 -8.18528381 -13.8876408 -8.28462088 0 0 Z " fill="#0B284F" transform="translate(265,757)"/>
<path d="M0 0 C3.96 0 7.92 0 12 0 C17.17600841 12.27453422 21.90567912 24.70056182 26.5703125 37.17578125 C26.80395508 37.79533691 27.03759766 38.41489258 27.27832031 39.05322266 C27.79179947 40.43836568 28.28951489 41.82939644 28.77636719 43.22412109 C29.93992121 47.35567681 29.93992121 47.35567681 33 50 C33.226875 48.80375 33.45375 47.6075 33.6875 46.375 C36.26015218 34.98182607 41.08985461 24.07168719 45.25 13.1875 C45.92289063 11.42321655 45.92289063 11.42321655 46.609375 9.62329102 C47.0321875 8.52428467 47.455 7.42527832 47.890625 6.29296875 C48.27250977 5.2980542 48.65439453 4.30313965 49.04785156 3.27807617 C50 1 50 1 51 0 C53.01964199 -0.07244053 55.04167124 -0.08377188 57.0625 -0.0625 C58.71958984 -0.04896484 58.71958984 -0.04896484 60.41015625 -0.03515625 C61.26480469 -0.02355469 62.11945312 -0.01195312 63 0 C60.81396522 8.09962781 57.76055908 15.71740145 54.5 23.4375 C53.70270048 25.34108827 52.90728326 27.2454559 52.11199951 29.14988708 C51.56700995 30.45477084 51.0214745 31.75942674 50.47540283 33.06385803 C47.52049741 40.12785708 44.63261949 47.21876184 41.75 54.3125 C41.27240234 55.48675537 40.79480469 56.66101074 40.30273438 57.87084961 C39.20109496 60.58027054 38.10042832 63.29008696 37 66 C33.04 66 29.08 66 25 66 C24.443125 64.453125 23.88625 62.90625 23.3125 61.3125 C18.97931398 49.30730645 18.97931398 49.30730645 14 37.5625 C11.74016235 32.61454903 10.0212603 27.49022885 8.2265625 22.359375 C7.21290199 19.58310736 6.11881807 16.92753202 4.875 14.25 C2.73552425 9.63186331 1.37888098 4.89502746 0 0 Z " fill="#0B284F" transform="translate(725,753)"/>
<path d="M0 0 C3.34125 -0.0825 6.6825 -0.165 10.125 -0.25 C11.16672363 -0.28641602 12.20844727 -0.32283203 13.28173828 -0.36035156 C19.20118031 -0.4309431 22.49278183 0.07081793 27 4 C29.59036348 7.41457004 29.43108741 10.83282171 29 15 C26.83967726 19.08918232 25.17146933 21.13335511 21 23 C21.5775 23.77085937 22.155 24.54171875 22.75 25.3359375 C23.4925 26.33882812 24.235 27.34171875 25 28.375 C26.11375 29.87160156 26.11375 29.87160156 27.25 31.3984375 C29 34 29 34 29 36 C24.79004402 36.96478158 24.79004402 36.96478158 22 36 C14 27.52695652 14 27.52695652 14 23 C11.69 23 9.38 23 7 23 C7 27.29 7 31.58 7 36 C4.69 36 2.38 36 0 36 C0 24.12 0 12.24 0 0 Z " fill="#F96C28" transform="translate(621,856)"/>
<path d="M0 0 C3.63 0 7.26 0 11 0 C11 21.78 11 43.56 11 66 C7.37 66 3.74 66 0 66 C0 44.22 0 22.44 0 0 Z " fill="#06254A" transform="translate(1021,753)"/>
<path d="M0 0 C3.63 0 7.26 0 11 0 C11 21.78 11 43.56 11 66 C7.37 66 3.74 66 0 66 C0 44.22 0 22.44 0 0 Z " fill="#0B284F" transform="translate(419,753)"/>
<path d="M0 0 C2.31 0 4.62 0 7 0 C10.99872056 8.35982518 14.82366444 16.77847616 18.4375 25.3125 C18.79134766 26.14241455 19.14519531 26.9723291 19.50976562 27.82739258 C19.83525391 28.60236084 20.16074219 29.3773291 20.49609375 30.17578125 C20.93199829 31.21085815 20.93199829 31.21085815 21.37670898 32.2668457 C22 34 22 34 22 36 C19.69 36 17.38 36 15 36 C13.74335022 33.09399739 13 31.20395416 13 28 C7.06 28 1.12 28 -5 28 C-5.99 31.465 -5.99 31.465 -7 35 C-8 36 -8 36 -11.0625 36.0625 C-12.031875 36.041875 -13.00125 36.02125 -14 36 C-13.41116438 31.24475453 -11.99811916 27.19500524 -10.05859375 22.8515625 C-9.77146011 22.19417084 -9.48432648 21.53677917 -9.18849182 20.85946655 C-8.27782992 18.77846236 -7.35784482 16.70173725 -6.4375 14.625 C-5.81513261 13.20730441 -5.19338142 11.78933813 -4.57226562 10.37109375 C-3.05528646 6.9108909 -1.52993703 3.45449187 0 0 Z " fill="#F95D17" transform="translate(782,856)"/>
<path d="M0 0 C3.34125 -0.0825 6.6825 -0.165 10.125 -0.25 C11.16672363 -0.28641602 12.20844727 -0.32283203 13.28173828 -0.36035156 C19.20698988 -0.43101238 22.46607483 0.10528395 27 4 C28.64156736 5.64156736 28.28815992 7.49215801 28.375 9.75 C28.35176468 13.81037168 28.2199311 14.71640463 25.625 18.0625 C22.11042149 20.65659366 20.50622386 21.12353147 16.2109375 21.09765625 C15.36321777 21.09515869 14.51549805 21.09266113 13.64208984 21.09008789 C12.5639502 21.08098389 11.48581055 21.07187988 10.375 21.0625 C6.95125 21.041875 3.5275 21.02125 0 21 C0 14.07 0 7.14 0 0 Z " fill="#F3F4F6" transform="translate(330,763)"/>
<path d="M0 0 C3.34125 -0.0825 6.6825 -0.165 10.125 -0.25 C11.16672363 -0.28641602 12.20844727 -0.32283203 13.28173828 -0.36035156 C19.18230039 -0.43071795 22.52806305 0.04123614 27 4 C28.73765543 7.47531087 28.59585352 11.2088001 28 15 C25.47031526 18.28175318 23.92268669 19.69243777 20 21 C18.44578271 21.08106686 16.88832973 21.10756898 15.33203125 21.09765625 C14.52741455 21.09515869 13.72279785 21.09266113 12.89379883 21.09008789 C11.36855591 21.07643188 11.36855591 21.07643188 9.8125 21.0625 C4.9553125 21.0315625 4.9553125 21.0315625 0 21 C0 14.07 0 7.14 0 0 Z " fill="#F2F3F5" transform="translate(936,763)"/>
<path d="M0 0 C8.25 0 16.5 0 25 0 C25 1.65 25 3.3 25 5 C18.73 5 12.46 5 6 5 C6 8.3 6 11.6 6 15 C11.94 15 17.88 15 24 15 C24 16.65 24 18.3 24 20 C18.39 20 12.78 20 7 20 C7 23.3 7 26.6 7 30 C13.27 30 19.54 30 26 30 C26 31.98 26 33.96 26 36 C17.42 36 8.84 36 0 36 C0 24.12 0 12.24 0 0 Z " fill="#F7621F" transform="translate(458,856)"/>
<path d="M0 0 C8.25 0 16.5 0 25 0 C25 1.65 25 3.3 25 5 C18.73 5 12.46 5 6 5 C6 8.3 6 11.6 6 15 C11.94 15 17.88 15 24 15 C24 16.65 24 18.3 24 20 C18.06 20 12.12 20 6 20 C6 23.63 6 27.26 6 31 C12.6 31 19.2 31 26 31 C26 32.65 26 34.3 26 36 C17.42 36 8.84 36 0 36 C0 24.12 0 12.24 0 0 Z " fill="#F85B14" transform="translate(355,856)"/>
<path d="M0 0 C31.68 0 63.36 0 96 0 C96 1.65 96 3.3 96 5 C64.32 5 32.64 5 0 5 C0 3.35 0 1.7 0 0 Z " fill="#F85610" transform="translate(225,871)"/>
<path d="M0 0 C1.84851563 -0.05607422 1.84851563 -0.05607422 3.734375 -0.11328125 C7.77719786 0.37634952 9.36446847 1.52058304 12.25 4.3125 C11.59 5.6325 10.93 6.9525 10.25 8.3125 C8.08125748 7.80646008 6.25032373 7.31266187 4.25 6.3125 C2.54297265 6.24253986 0.83331997 6.22809846 -0.875 6.25 C-1.78507813 6.25902344 -2.69515625 6.26804687 -3.6328125 6.27734375 C-4.68082031 6.29474609 -4.68082031 6.29474609 -5.75 6.3125 C-5.90637858 8.74464273 -5.90637858 8.74464273 -5.75 11.3125 C-2.76124854 13.90275126 0.51090156 14.68296609 4.25 15.6875 C8.77442951 17.00431157 11.54708446 18.2581267 14.25 22.3125 C14.94024324 25.14824931 14.97624016 27.48187889 14.25 30.3125 C11.71546343 33.53204645 10.13702695 35.01682435 6.25 36.3125 C-5.66050181 37.34819581 -5.66050181 37.34819581 -10.00390625 35.1953125 C-11.625 33.8125 -11.625 33.8125 -13.75 31.3125 C-13.09 29.9925 -12.43 28.6725 -11.75 27.3125 C-8.78824877 27.92527612 -7.36941217 28.56622522 -4.75 30.3125 C1.56867657 30.76684384 1.56867657 30.76684384 7.25 28.3125 C7.14386164 25.86025306 7.14386164 25.86025306 6.25 23.3125 C3.99136093 22.01207145 1.85237972 21.44271137 -0.68359375 20.89453125 C-5.30472812 19.87246561 -8.24677071 18.70957083 -11.75 15.3125 C-13.31935594 12.17378812 -13.10201103 9.77394178 -12.75 6.3125 C-10.3125 3.4375 -10.3125 3.4375 -7.75 1.3125 C-5.82815673 -0.60934327 -2.55710692 0.05039941 0 0 Z " fill="#F95812" transform="translate(891.75,855.6875)"/>
<path d="M0 0 C30.03 0 60.06 0 91 0 C91 1.65 91 3.3 91 5 C60.97 5 30.94 5 0 5 C0 3.35 0 1.7 0 0 Z " fill="#F7560F" transform="translate(938,871)"/>
<path d="M0 0 C2.85910674 0.98361426 3.84015832 1.77844856 6 4 C6 5.32 6 6.64 6 8 C4.3125 8.6875 4.3125 8.6875 2 9 C1.236875 8.525625 0.47375 8.05125 -0.3125 7.5625 C-3.80882628 5.52975217 -6.00861739 5.57235186 -10 6 C-13.5386994 7.65139305 -14.81070153 8.71605229 -17 12 C-17.65237324 16.37433428 -18.03401151 21.01269906 -15.94921875 25.01953125 C-14.19367363 27.14793551 -12.47623989 28.76188006 -10 30 C-4.51994821 30.35355173 -2.3203043 30.42644824 2 27 C4.75 27.3125 4.75 27.3125 7 28 C6.78466339 31.01471257 5.94148523 32.06018662 3.8125 34.25 C-1.48491944 37.44384368 -8.11555367 36.999752 -14 36 C-19.28345768 33.21039829 -23.20803646 28.71188377 -25 23 C-25.68436002 17.02651466 -25.55754926 12.04942476 -22 7 C-14.97924525 0.09300748 -9.89796431 -0.87581987 0 0 Z " fill="#FB611B" transform="translate(736,856)"/>
<path d="M0 0 C2.79214873 1.75952925 3.74493711 3.05512382 4.79296875 6.19921875 C2.60546875 7.38671875 2.60546875 7.38671875 -0.20703125 8.19921875 C-1.87766872 7.20586674 -3.54378724 6.20490117 -5.20703125 5.19921875 C-10.34687068 4.49694438 -10.34687068 4.49694438 -15.01953125 6.25390625 C-17.19832117 8.02417306 -18.94337495 9.67190614 -20.20703125 12.19921875 C-20.64243837 16.46118463 -20.67768553 20.11671391 -18.95703125 24.07421875 C-16.03571898 27.62152651 -14.52246552 29.05305939 -9.83203125 29.57421875 C-5.9556422 29.17321299 -3.63778443 27.95271482 -0.20703125 26.19921875 C2.16796875 26.51171875 2.16796875 26.51171875 3.79296875 27.19921875 C3.79296875 28.51921875 3.79296875 29.83921875 3.79296875 31.19921875 C-1.16949985 35.81944814 -6.58330876 35.53781851 -13.03515625 35.48046875 C-18.4934336 34.99648357 -20.9820665 32.55661213 -24.51953125 28.63671875 C-28.32811864 23.13542586 -27.89078571 16.64049656 -27.20703125 10.19921875 C-26.03050247 7.25282556 -24.50584676 5.35628424 -22.20703125 3.19921875 C-21.40265625 2.39484375 -20.59828125 1.59046875 -19.76953125 0.76171875 C-13.77016247 -1.86958335 -6.23888343 -2.26366567 0 0 Z " fill="#F95B14" transform="translate(537.20703125,856.80078125)"/>
<path d="M0 0 C2.31 0 4.62 0 7 0 C7 9.9 7 19.8 7 30 C12.94 30 18.88 30 25 30 C25 31.98 25 33.96 25 36 C16.75 36 8.5 36 0 36 C0 24.12 0 12.24 0 0 Z " fill="#F56423" transform="translate(408,856)"/>
<path d="M0 0 C2.33562724 2.89046986 3.85433049 5.66375442 5.26171875 9.09765625 C5.65810547 10.06380859 6.05449219 11.02996094 6.46289062 12.02539062 C6.86701172 13.02763672 7.27113281 14.02988281 7.6875 15.0625 C8.10322266 16.06861328 8.51894531 17.07472656 8.94726562 18.11132812 C12 25.61534021 12 25.61534021 12 29 C4.41 29 -3.18 29 -11 29 C-7.625 17.75 -7.625 17.75 -5.95703125 13.8671875 C-5.60576172 13.0421875 -5.25449219 12.2171875 -4.89257812 11.3671875 C-4.53615234 10.54476562 -4.17972656 9.72234375 -3.8125 8.875 C-3.44447266 8.01390625 -3.07644531 7.1528125 -2.69726562 6.265625 C-1.80293562 4.17498344 -0.90382824 2.08654837 0 0 Z " fill="#F0F1F4" transform="translate(661,766)"/>
<path d="M0 0 C9.57 0 19.14 0 29 0 C29 1.98 29 3.96 29 6 C25.37 6 21.74 6 18 6 C18 15.9 18 25.8 18 36 C16.02 36 14.04 36 12 36 C12 25.77 12 15.54 12 5 C8.04 5 4.08 5 0 5 C0 3.35 0 1.7 0 0 Z " fill="#FA520D" transform="translate(566,856)"/>
<path d="M0 0 C1.98 0 3.96 0 6 0 C6 9.9 6 19.8 6 30 C11.94 30 17.88 30 24 30 C24 31.98 24 33.96 24 36 C16.08 36 8.16 36 0 36 C0 24.12 0 12.24 0 0 Z " fill="#F9681F" transform="translate(830,856)"/>
<path d="M0 0 C2.31 0 4.62 0 7 0 C7.70180531 1.4096347 8.38593958 2.82807641 9.0625 4.25 C9.44535156 5.03890625 9.82820312 5.8278125 10.22265625 6.640625 C11.08564091 9.25993522 10.93045933 10.44855176 10 13 C9.34 13 8.68 13 8 13 C8.53980347 16.39305036 9.16550811 19.66203244 10 23 C6.04 23 2.08 23 -2 23 C-1.27275406 17.47293087 0.33445973 12.30039859 2 7 C-0.87420123 9.71604715 -0.87420123 9.71604715 -3 13 C-3.66 13 -4.32 13 -5 13 C-4.54554036 11.58208592 -4.08625056 10.16571954 -3.625 8.75 C-3.24214844 7.56664062 -3.24214844 7.56664062 -2.8515625 6.359375 C-2.04826333 4.13372042 -1.10288338 2.09068328 0 0 Z " fill="#F96420" transform="translate(782,856)"/>
<path d="M0 0 C1.98 0 3.96 0 6 0 C6 11.88 6 23.76 6 36 C4.02 36 2.04 36 0 36 C0 24.12 0 12.24 0 0 Z " fill="#F85A11" transform="translate(678,856)"/>
<path d="M0 0 C13.26996941 -0.58069558 26.33380576 0.87982183 39.51171875 2.24609375 C46.33337508 2.95257507 53.15936109 3.51391838 60 4 C60 4.66 60 5.32 60 6 C78.15 6 96.3 6 115 6 C115 6.33 115 6.66 115 7 C107.39505008 7.05180868 99.79014744 7.08618322 92.18505859 7.10986328 C89.61179912 7.11976166 87.03855038 7.13328368 84.46533203 7.15087891 C60.58363185 7.30977867 36.90241733 6.31581502 13.25 2.875 C11.94546875 2.69324219 10.6409375 2.51148438 9.296875 2.32421875 C6.19663975 1.89109765 3.09783022 1.44993855 0 1 C0 0.67 0 0.34 0 0 Z " fill="#3A486A" transform="translate(544,1189)"/>
<path d="M0 0 C2.475 0.99 2.475 0.99 5 2 C5 1.34 5 0.68 5 0 C7.49361571 1.20381448 9.68143083 2.45428722 12 4 C17.50337426 4.43677573 19.67069149 4.43358951 24 1 C26.75 1.3125 26.75 1.3125 29 2 C28.78466339 5.01471257 27.94148523 6.06018662 25.8125 8.25 C20.52168855 11.43985969 13.87610311 11.01496326 8 10 C4.67429495 8.18246352 2.15795449 6.12970418 0 3 C0 2.01 0 1.02 0 0 Z " fill="#F85915" transform="translate(714,882)"/>
<path d="M0 0 C2.12472576 -0.05386629 4.24983652 -0.09273071 6.375 -0.125 C7.55835938 -0.14820313 8.74171875 -0.17140625 9.9609375 -0.1953125 C13 0 13 0 15 2 C15.25 5.5 15.25 5.5 15 9 C13 11 13 11 9.9609375 11.1953125 C8.77757812 11.17210937 7.59421875 11.14890625 6.375 11.125 C5.18648437 11.10695313 3.99796875 11.08890625 2.7734375 11.0703125 C1.85820313 11.04710937 0.94296875 11.02390625 0 11 C0 7.37 0 3.74 0 0 Z " fill="#FEF9F7" transform="translate(628,862)"/>
<path d="M0 0 C1.8871875 0.061875 1.8871875 0.061875 3.8125 0.125 C3.8125 0.455 3.8125 0.785 3.8125 1.125 C5.4625 1.455 7.1125 1.785 8.8125 2.125 C7.8225 3.115 6.8325 4.105 5.8125 5.125 C6.39 5.89585937 6.9675 6.66671875 7.5625 7.4609375 C8.305 8.46382812 9.0475 9.46671875 9.8125 10.5 C10.92625 11.99660156 10.92625 11.99660156 12.0625 13.5234375 C13.8125 16.125 13.8125 16.125 13.8125 18.125 C9.60254402 19.08978158 9.60254402 19.08978158 6.8125 18.125 C-1.1875 9.65195652 -1.1875 9.65195652 -1.1875 5.125 C-3.4975 5.125 -5.8075 5.125 -8.1875 5.125 C-6.68328007 0.61234022 -4.4443381 -0.145716 0 0 Z " fill="#F95F17" transform="translate(636.1875,873.875)"/>
<path d="M0 0 C1.84851563 -0.05607422 1.84851563 -0.05607422 3.734375 -0.11328125 C7.77719786 0.37634952 9.36446847 1.52058304 12.25 4.3125 C11.59 5.6325 10.93 6.9525 10.25 8.3125 C8.08125748 7.80646008 6.25032373 7.31266187 4.25 6.3125 C2.54297265 6.24253986 0.83331997 6.22809846 -0.875 6.25 C-1.78507813 6.25902344 -2.69515625 6.26804687 -3.6328125 6.27734375 C-4.33148437 6.28894531 -5.03015625 6.30054688 -5.75 6.3125 C-6.41 8.2925 -7.07 10.2725 -7.75 12.3125 C-8.74 11.9825 -9.73 11.6525 -10.75 11.3125 C-11.41 11.9725 -12.07 12.6325 -12.75 13.3125 C-13.0625 10.125 -13.0625 10.125 -12.75 6.3125 C-10.3125 3.4375 -10.3125 3.4375 -7.75 1.3125 C-5.82815673 -0.60934327 -2.55710692 0.05039941 0 0 Z " fill="#FB5E15" transform="translate(891.75,855.6875)"/>
<path d="M0 0 C0.33 0.66 0.66 1.32 1 2 C1.66 2 2.32 2 3 2 C2.67 4.31 2.34 6.62 2 9 C2.33 9 2.66 9 3 9 C3.41676948 10.76602319 3.8077738 12.53814301 4.1875 14.3125 C4.40792969 15.29863281 4.62835937 16.28476562 4.85546875 17.30078125 C5 20 5 20 3.55078125 21.85546875 C3.03902344 22.23316406 2.52726563 22.61085938 2 23 C-2.875 20.375 -2.875 20.375 -4 17 C-4.5421935 10.94203035 -4.37227953 6.26075607 -1 1 C-0.67 0.67 -0.34 0.34 0 0 Z " fill="#FA6726" transform="translate(715,862)"/>
<path d="M0 0 C0.66 0.33 1.32 0.66 2 1 C0.82464439 2.41734059 -0.35186724 3.83373378 -1.53320312 5.24609375 C-2.44732436 6.33914417 -3.35808972 7.43502089 -4.26367188 8.53515625 C-8.67024018 13.80233188 -13.49679465 18.60986616 -18.375 23.4375 C-19.20644531 24.26443359 -20.03789063 25.09136719 -20.89453125 25.94335938 C-22.9274104 27.96455531 -24.96259963 29.98336335 -27 32 C-27.33 31.01 -27.66 30.02 -28 29 C-25.6875 25.8125 -25.6875 25.8125 -23 23 C-22.34 23 -21.68 23 -21 23 C-20.75975098 22.4337793 -20.51950195 21.86755859 -20.27197266 21.28417969 C-18.73804889 18.52959413 -16.89273982 16.66750329 -14.6484375 14.453125 C-13.37226562 13.18662109 -13.37226562 13.18662109 -12.0703125 11.89453125 C-10.73613281 10.58548828 -10.73613281 10.58548828 -9.375 9.25 C-8.4778125 8.36183594 -7.580625 7.47367187 -6.65625 6.55859375 C-4.44192996 4.36783031 -2.22307565 2.18187237 0 0 Z " fill="#15294F" transform="translate(832,355)"/>
<path d="M0 0 C0.66 0 1.32 0 2 0 C2.83739781 2.1234016 3.66980283 4.2487728 4.5 6.375 C4.9640625 7.55835938 5.428125 8.74171875 5.90625 9.9609375 C7 13 7 13 7 15 C3.04 15 -0.92 15 -5 15 C-4.43174347 9.45949887 -2.37113483 4.96284034 0 0 Z " fill="#FDF2ED" transform="translate(785,864)"/>
<path d="M0 0 C10.74171562 -0.68808143 10.74171562 -0.68808143 14.6875 1.8125 C15.450625 2.534375 16.21375 3.25625 17 4 C17 4.99 17 5.98 17 7 C16.01 7.495 16.01 7.495 15 8 C14.34227572 11.02934491 14.34227572 11.02934491 14 14 C13.67 14 13.34 14 13 14 C12.731875 13.05125 12.46375 12.1025 12.1875 11.125 C11.25013412 7.74732727 11.25013412 7.74732727 8 6 C5.26127045 5.54227937 5.26127045 5.54227937 2.3125 5.375 C0.82169922 5.26285156 0.82169922 5.26285156 -0.69921875 5.1484375 C-1.45847656 5.09945312 -2.21773437 5.05046875 -3 5 C-3 4.34 -3 3.68 -3 3 C-2.01 2.34 -1.02 1.68 0 1 C0 0.67 0 0.34 0 0 Z " fill="#F95B11" transform="translate(631,856)"/>
<path d="M0 0 C3.96 0 7.92 0 12 0 C12 1.98 12 3.96 12 6 C8.37 6 4.74 6 1 6 C1 15.9 1 25.8 1 36 C0.67 36 0.34 36 0 36 C0 24.12 0 12.24 0 0 Z " fill="#F97034" transform="translate(583,856)"/>
<path d="M0 0 C5.61 0 11.22 0 17 0 C17 1.65 17 3.3 17 5 C9.08 5 1.16 5 -7 5 C-7 4.34 -7 3.68 -7 3 C-3.535 2.505 -3.535 2.505 0 2 C0 1.34 0 0.68 0 0 Z " fill="#F65814" transform="translate(837,887)"/>
<path d="M0 0 C0 5.91035304 -0.16239728 7.48517327 -4 12 C-4.99 13.485 -4.99 13.485 -6 15 C-6 14.01 -6 13.02 -6 12 C-6.99 12.33 -7.98 12.66 -9 13 C-9.33 16.3 -9.66 19.6 -10 23 C-10.33 23 -10.66 23 -11 23 C-11.86078151 10.27956219 -11.86078151 10.27956219 -8.75 5.875 C-3.13043478 0 -3.13043478 0 0 0 Z " fill="#F96625" transform="translate(521,857)"/>
<path d="M0 0 C0 0.66 0 1.32 0 2 C2.97 2.495 2.97 2.495 6 3 C6 3.33 6 3.66 6 4 C5.33613281 4.08636719 4.67226563 4.17273438 3.98828125 4.26171875 C-0.34381928 4.95106029 -3.37665715 5.55846548 -7 8.125 C-9.53333212 11.76666493 -10.19002955 14.65561307 -11 19 C-11.33 19 -11.66 19 -12 19 C-11.85831863 17.56208484 -11.71148957 16.1246763 -11.5625 14.6875 C-11.48128906 13.88699219 -11.40007813 13.08648438 -11.31640625 12.26171875 C-11 10 -11 10 -10 7 C-10.66 7 -11.32 7 -12 7 C-11.7421875 5.109375 -11.7421875 5.109375 -11 3 C-9.2578125 1.953125 -9.2578125 1.953125 -7.125 1.25 C-6.42632813 1.00765625 -5.72765625 0.7653125 -5.0078125 0.515625 C-3 0 -3 0 0 0 Z " fill="#F9570F" transform="translate(728,857)"/>
<path d="M0 0 C10.56 0 21.12 0 32 0 C32 2.97 32 5.94 32 9 C21.44 9 10.88 9 0 9 C0 8.67 0 8.34 0 8 C2.64 8 5.28 8 8 8 C8 7.34 8 6.68 8 6 C8.99 6 9.98 6 11 6 C11 6.66 11 7.32 11 8 C17.6 8 24.2 8 31 8 C31 5.69 31 3.38 31 1 C20.77 1 10.54 1 0 1 C0 0.67 0 0.34 0 0 Z " fill="#000836" transform="translate(843,781)"/>
<path d="M0 0 C17.82 0 35.64 0 54 0 C48 7 48 7 46 8 C45.957279 6.33388095 45.95936168 4.66617115 46 3 C46.33 2.67 46.66 2.34 47 2 C23.735 1.505 23.735 1.505 0 1 C0 0.67 0 0.34 0 0 Z " fill="#212E52" transform="translate(847,340)"/>
<path d="M0 0 C2.92879371 0.62759865 5.36095629 1.58622659 8 3 C8.1953125 9.0546875 8.1953125 9.0546875 8 11 C7.34 11.66 6.68 12.32 6 13 C5.01 13 4.02 13 3 13 C2.67 12.34 2.34 11.68 2 11 C0.35 11.33 -1.3 11.66 -3 12 C-1.68 11.01 -0.36 10.02 1 9 C0.835 8.2575 0.67 7.515 0.5 6.75 C0 4 0 4 0 0 Z " fill="#F96015" transform="translate(898,875)"/>
<path d="M0 0 C1.65 0 3.3 0 5 0 C5 5.61 5 11.22 5 17 C4.67 17 4.34 17 4 17 C3.67 15.35 3.34 13.7 3 12 C2.01 12.99 1.02 13.98 0 15 C0 10.05 0 5.1 0 0 Z " fill="#F7590F" transform="translate(830,856)"/>
<path d="M0 0 C5.62303757 4.67466337 10.79741554 9.67765667 15.9375 14.875 C16.71673828 15.65875 17.49597656 16.4425 18.29882812 17.25 C20.20154085 19.16438581 22.10186171 21.08108034 24 23 C23.01 23.33 22.02 23.66 21 24 C18.05837714 21.08746667 15.1224386 18.16926768 12.1875 15.25 C11.35412109 14.425 10.52074219 13.6 9.66210938 12.75 C8.85966797 11.95078125 8.05722656 11.1515625 7.23046875 10.328125 C6.49207764 9.5949707 5.75368652 8.86181641 4.99291992 8.10644531 C0 2.82910695 0 2.82910695 0 0 Z " fill="#1B2A52" transform="translate(245,976)"/>
<path d="M0 0 C2.0625 0.4375 2.0625 0.4375 4 1 C4 2.32 4 3.64 4 5 C1.875 6.875 1.875 6.875 -1 8 C-4.64094813 7.1826443 -7.69092912 5.67232615 -11 4 C-10.28972656 3.79503906 -9.57945312 3.59007812 -8.84765625 3.37890625 C-7.92855469 3.10949219 -7.00945313 2.84007812 -6.0625 2.5625 C-4.68771484 2.16224609 -4.68771484 2.16224609 -3.28515625 1.75390625 C-1.0597507 1.20973949 -1.0597507 1.20973949 0 0 Z " fill="#F95815" transform="translate(537,883)"/>
<path d="M0 0 C0.99 0.33 1.98 0.66 3 1 C3 1.66 3 2.32 3 3 C-14.16 3 -31.32 3 -49 3 C-49 2.67 -49 2.34 -49 2 C-32.83 2 -16.66 2 0 2 C0 1.34 0 0.68 0 0 Z " fill="#142A54" transform="translate(910,671)"/>
<path d="M0 0 C1.8009015 5.4027045 -0.62091406 11.00124641 -3 16 C-5.52994126 17.79474465 -6.83038937 17.81713785 -10 18 C-8.47146065 13.72813475 -6.28490519 10.00673137 -3.875 6.1875 C-3.50246094 5.59001953 -3.12992188 4.99253906 -2.74609375 4.37695312 C-1.8342952 2.91573749 -0.91764024 1.45755415 0 0 Z " fill="#FA5820" transform="translate(711,353)"/>
<path d="M0 0 C7.26 0 14.52 0 22 0 C22 1.65 22 3.3 22 5 C15.73 5 9.46 5 3 5 C3 4.67 3 4.34 3 4 C8.61 4 14.22 4 20 4 C19.67 3.34 19.34 2.68 19 2 C12.73 2 6.46 2 0 2 C0 1.34 0 0.68 0 0 Z " fill="#F84D0D" transform="translate(358,856)"/>
<path d="M0 0 C3.51367693 4.68490258 4.14612716 7.06335311 4.0625 12.75 C4.05347656 13.54921875 4.04445313 14.3484375 4.03515625 15.171875 C4.01775391 16.07679688 4.01775391 16.07679688 4 17 C2.35 17 0.7 17 -1 17 C-0.67 11.39 -0.34 5.78 0 0 Z " fill="#F55812" transform="translate(579,875)"/>
<path d="M0 0 C0.33 0 0.66 0 1 0 C1 8.25 1 16.5 1 25 C-2.3 25 -5.6 25 -9 25 C-9 22.03 -9 19.06 -9 16 C-7.515 16.99 -7.515 16.99 -6 18 C-6.33 19.65 -6.66 21.3 -7 23 C-4.69 23.33 -2.38 23.66 0 24 C0 16.08 0 8.16 0 0 Z " fill="#05153D" transform="translate(935,794)"/>
<path d="M0 0 C1.65 1.65 3.3 3.3 5 5 C4.34 6.98 3.68 8.96 3 11 C1.02 11 -0.96 11 -3 11 C-2.44894091 7.0507432 -1.61064629 3.65079826 0 0 Z " fill="#FB6422" transform="translate(771,881)"/>
<path d="M0 0 C0.66 0.33 1.32 0.66 2 1 C1.34 2.32 0.68 3.64 0 5 C0.99 5.33 1.98 5.66 3 6 C2.34 6 1.68 6 1 6 C0.34 7.98 -0.32 9.96 -1 12 C-1.99 11.67 -2.98 11.34 -4 11 C-4.66 11.66 -5.32 12.32 -6 13 C-6.3125 9.8125 -6.3125 9.8125 -6 6 C-3.5625 3.125 -3.5625 3.125 -1 1 C-0.67 0.67 -0.34 0.34 0 0 Z " fill="#FB6F2C" transform="translate(885,856)"/>
<path d="M0 0 C0.66 0.33 1.32 0.66 2 1 C-0.85423167 3.99967307 -3.73660534 6.97073804 -6.625 9.9375 C-7.43324219 10.78763672 -8.24148438 11.63777344 -9.07421875 12.51367188 C-10.26337891 13.72700195 -10.26337891 13.72700195 -11.4765625 14.96484375 C-12.5605835 16.08814087 -12.5605835 16.08814087 -13.66650391 17.23413086 C-16.4521585 19.34217016 -18.5594107 19.68623557 -22 20 C-18.48534844 16.2343019 -18.48534844 16.2343019 -16.07519531 15.07080078 C-13.78784291 13.89052694 -12.34623773 12.57487176 -10.546875 10.7421875 C-9.928125 10.11699219 -9.309375 9.49179687 -8.671875 8.84765625 C-7.72054687 7.87119141 -7.72054687 7.87119141 -6.75 6.875 C-6.1003125 6.21628906 -5.450625 5.55757812 -4.78125 4.87890625 C-3.18288273 3.25703357 -1.58938103 1.6306719 0 0 Z " fill="#07284D" transform="translate(1003,987)"/>
<path d="M0 0 C0.33 0.99 0.66 1.98 1 3 C1.66 3.33 2.32 3.66 3 4 C-1.72194167 7.77755334 -6.25928072 7.30096975 -12 7 C-11.01 6.34 -10.02 5.68 -9 5 C-9 4.34 -9 3.68 -9 3 C-6.03 2.01 -3.06 1.02 0 0 Z " fill="#F74F0A" transform="translate(900,885)"/>
<path d="M0 0 C0 0.99 0 1.98 0 3 C-2.60067681 3.72423911 -5.20407991 4.42972035 -7.8125 5.125 C-8.55048828 5.33253906 -9.28847656 5.54007812 -10.04882812 5.75390625 C-12.00918425 6.26838885 -14.00503422 6.64250871 -16 7 C-16.99 6.34 -17.98 5.68 -19 5 C-16.39741676 4.16142312 -13.79314353 3.32896656 -11.1875 2.5 C-10.08051758 2.14228516 -10.08051758 2.14228516 -8.95117188 1.77734375 C-5.86744804 0.80059864 -3.25504191 0 0 0 Z " fill="#1D3259" transform="translate(438,342)"/>
<path d="M0 0 C2.28343751 3.42515627 2.19401516 4.50193919 2.0625 8.5 C1.9545587 14.40079094 2.35382512 20.13827075 3 26 C2.01 26.66 1.02 27.32 0 28 C0 18.76 0 9.52 0 0 Z " fill="#041B40" transform="translate(926,759)"/>
<path d="M0 0 C2.4375 1.0625 2.4375 1.0625 5 3 C5.8125 6.6875 5.8125 6.6875 6 10 C6.66 10 7.32 10 8 10 C9.6875 11.625 9.6875 11.625 11 14 C10.6875 17.25 10.6875 17.25 10 20 C7.72287048 16.58430572 5.81112111 13.05318907 3.875 9.4375 C3.50246094 8.75236328 3.12992187 8.06722656 2.74609375 7.36132812 C0 2.23629235 0 2.23629235 0 0 Z " fill="#203459" transform="translate(109,867)"/>
<path d="M0 0 C0.33 0 0.66 0 1 0 C1.33 5.61 1.66 11.22 2 17 C2.66 17.33 3.32 17.66 4 18 C4.1953125 24.0546875 4.1953125 24.0546875 4 26 C3.34 26.66 2.68 27.32 2 28 C0.33042768 21.48603871 -0.26029841 15.64517871 -0.125 8.9375 C-0.11597656 8.07189453 -0.10695313 7.20628906 -0.09765625 6.31445312 C-0.07439723 4.20951221 -0.03854008 2.10471658 0 0 Z " fill="#4E5C79" transform="translate(358,427)"/>
<path d="M0 0 C0.66 0.33 1.32 0.66 2 1 C0.625 2.5 0.625 2.5 -1 4 C-1.66 4 -2.32 4 -3 4 C-3.226875 4.61875 -3.45375 5.2375 -3.6875 5.875 C-5.42827269 8.69339387 -6.84468818 9.11944786 -10 10 C-12.8125 10.125 -12.8125 10.125 -15 10 C-10.47125612 6.07508864 -5.39401009 2.62540314 0 0 Z " fill="#1C2E55" transform="translate(347,121)"/>
<path d="M0 0 C3.63 0 7.26 0 11 0 C11 0.33 11 0.66 11 1 C8.69 1.66 6.38 2.32 4 3 C6.64 3.33 9.28 3.66 12 4 C12 4.33 12 4.66 12 5 C6.06 5.495 6.06 5.495 0 6 C-0.66 5.01 -1.32 4.02 -2 3 C-1.34 3 -0.68 3 0 3 C0 2.01 0 1.02 0 0 Z " fill="#F8540F" transform="translate(521,856)"/>
<path d="M0 0 C0.66 0.66 1.32 1.32 2 2 C0.9171875 2.804375 0.9171875 2.804375 -0.1875 3.625 C-3.09428514 5.93831026 -3.09428514 5.93831026 -5.4375 8.9375 C-8.09654574 12.11538393 -10.76309242 14.4405847 -14 17 C-14.66 16.67 -15.32 16.34 -16 16 C-10.72 10.72 -5.44 5.44 0 0 Z " fill="#162A50" transform="translate(379,643)"/>
<path d="M0 0 C0.66 0.33 1.32 0.66 2 1 C1.48050781 1.49628906 0.96101562 1.99257813 0.42578125 2.50390625 C-2.96845163 5.81030316 -6.15135432 9.00292264 -8.8125 12.9375 C-11 16 -11 16 -14 17 C-13.4194679 13.69881206 -12.45131901 12.08865924 -10.05859375 9.765625 C-9.18364258 8.90517578 -9.18364258 8.90517578 -8.29101562 8.02734375 C-7.67935547 7.44082031 -7.06769531 6.85429687 -6.4375 6.25 C-5.82197266 5.64800781 -5.20644531 5.04601562 -4.57226562 4.42578125 C-3.05485187 2.94365619 -1.52829404 1.4709033 0 0 Z " fill="#091B40" transform="translate(719,471)"/>
<path d="M0 0 C3.85550018 3.63635985 6.86741138 7.41691848 9.8125 11.8125 C10.21919922 12.40998047 10.62589844 13.00746094 11.04492188 13.62304688 C12.03479703 15.07874564 13.01809735 16.53891174 14 18 C13.01 18.33 12.02 18.66 11 19 C10.67 17.68 10.34 16.36 10 15 C9.34 15 8.68 15 8 15 C8 14.01 8 13.02 8 12 C7.34 12 6.68 12 6 12 C5.566875 11.0925 5.13375 10.185 4.6875 9.25 C3.15019164 6.07225128 3.15019164 6.07225128 1.3125 3.75 C0 2 0 2 0 0 Z " fill="#F95B1D" transform="translate(1087,283)"/>
<path d="M0 0 C0.33 0 0.66 0 1 0 C1.03738281 0.84304688 1.07476562 1.68609375 1.11328125 2.5546875 C1.21189453 4.19824219 1.21189453 4.19824219 1.3125 5.875 C1.37050781 6.96554687 1.42851562 8.05609375 1.48828125 9.1796875 C1.74158203 10.57574219 1.74158203 10.57574219 2 12 C2.99 12.66 3.98 13.32 5 14 C2.36 14 -0.28 14 -3 14 C-3 11.36 -3 8.72 -3 6 C-2.34 5.67 -1.68 5.34 -1 5 C-0.34444881 2.47266765 -0.34444881 2.47266765 0 0 Z " fill="#F26723" transform="translate(464,876)"/>
<path d="M0 0 C0 4.27142576 -2.48286435 6.16071473 -5.25 9.125 C-5.74113281 9.67542969 -6.23226562 10.22585938 -6.73828125 10.79296875 C-11.25671167 15.6969719 -11.25671167 15.6969719 -15 16 C-10.30233025 10.33870569 -5.25276628 5.14771096 0 0 Z " fill="#1A294E" transform="translate(742,447)"/>
<path d="M0 0 C0.66 0.66 1.32 1.32 2 2 C0.21427748 3.83947337 -1.57802449 5.67157741 -3.375 7.5 C-3.88289062 8.02464844 -4.39078125 8.54929687 -4.9140625 9.08984375 C-6.23832604 10.43153181 -7.61605865 11.71995815 -9 13 C-9.66 13 -10.32 13 -11 13 C-10.45677238 9.205764 -8.9784232 7.7689044 -6.0625 5.375 C-5.35222656 4.78460938 -4.64195312 4.19421875 -3.91015625 3.5859375 C-3.27980469 3.06257813 -2.64945313 2.53921875 -2 2 C-1.34 1.34 -0.68 0.68 0 0 Z " fill="#F4F5F7" transform="translate(729,457)"/>
<path d="M0 0 C1.32 0.33 2.64 0.66 4 1 C3.51675181 6.15464734 0.81389239 9.81550319 -2 14 C-3.49341969 11.01316063 -2.40648676 9.04839022 -1.5625 5.875 C-1.27503906 4.77929688 -0.98757813 3.68359375 -0.69140625 2.5546875 C-0.46324219 1.71164062 -0.23507812 0.86859375 0 0 Z " fill="#FD6730" transform="translate(611,691)"/>
<path d="M0 0 C0.33 1.32 0.66 2.64 1 4 C-4.94 4 -10.88 4 -17 4 C-17 3.01 -17 2.02 -17 1 C-11.72 1.33 -6.44 1.66 -1 2 C-0.67 1.34 -0.34 0.68 0 0 Z " fill="#F96316" transform="translate(481,856)"/>
<path d="M0 0 C0.33 0 0.66 0 1 0 C1 8.25 1 16.5 1 25 C0.67 25 0.34 25 0 25 C-0.06058594 24.28714844 -0.12117188 23.57429687 -0.18359375 22.83984375 C-0.64808101 17.53039712 -1.18075251 12.266591 -2 7 C-1.67 7 -1.34 7 -1 7 C-0.67 4.69 -0.34 2.38 0 0 Z " fill="#031D41" transform="translate(328,794)"/>
<path d="M0 0 C6.27 0 12.54 0 19 0 C19 0.33 19 0.66 19 1 C16.69 1.33 14.38 1.66 12 2 C12 2.33 12 2.66 12 3 C8.04 3 4.08 3 0 3 C0 2.01 0 1.02 0 0 Z " fill="#344A6B" transform="translate(587,1143)"/>
<path d="M0 0 C0.99 0 1.98 0 3 0 C3 0.66 3 1.32 3 2 C8.61 2 14.22 2 20 2 C20 2.33 20 2.66 20 3 C10.76 3 1.52 3 -8 3 C-8 2.67 -8 2.34 -8 2 C-5.36 2 -2.72 2 0 2 C0 1.34 0 0.68 0 0 Z " fill="#02183C" transform="translate(851,787)"/>
<path d="M0 0 C0.33 0 0.66 0 1 0 C0.49354466 8.68517024 -0.02295299 17.35209459 -1 26 C-1.33 26 -1.66 26 -2 26 C-2.19401633 24.18818595 -2.38004375 22.37551468 -2.5625 20.5625 C-2.66691406 19.55316406 -2.77132813 18.54382813 -2.87890625 17.50390625 C-2.91886719 16.67761719 -2.95882813 15.85132813 -3 15 C-2.67 14.67 -2.34 14.34 -2 14 C-1.92820036 12.48071962 -1.91607993 10.95832518 -1.9375 9.4375 C-1.94652344 8.61121094 -1.95554687 7.78492188 -1.96484375 6.93359375 C-1.97644531 6.29550781 -1.98804688 5.65742187 -2 5 C-1.34 5 -0.68 5 0 5 C0 3.35 0 1.7 0 0 Z " fill="#F67239" transform="translate(1195,665)"/>
<path d="M0 0 C0.66 0 1.32 0 2 0 C1.67 4.62 1.34 9.24 1 14 C0.67 14 0.34 14 0 14 C-1.59138085 9.82262526 -2.21278058 6.46839215 -2 2 C-1.34 2 -0.68 2 0 2 C0 1.34 0 0.68 0 0 Z " fill="#182C4D" transform="translate(110,557)"/>
<path d="M0 0 C5.61 0.33 11.22 0.66 17 1 C17 1.66 17 2.32 17 3 C18.65 3 20.3 3 22 3 C22 3.33 22 3.66 22 4 C14.52906777 4.29883729 7.36955011 3.15925507 0 2 C0 1.34 0 0.68 0 0 Z " fill="#F97E48" transform="translate(610,526)"/>
<path d="M0 0 C0.33 1.32 0.66 2.64 1 4 C-3.82360189 4.19294408 -7.49646738 3.75747614 -12 2 C-12 1.67 -12 1.34 -12 1 C-7.95858806 0.36605303 -4.0934693 -0.12404452 0 0 Z " fill="#0F1F43" transform="translate(445,522)"/>
<path d="M0 0 C0.66 0 1.32 0 2 0 C1.27595226 4.04704581 0.16553713 7.89070402 -1.0625 11.8125 C-1.42472656 12.97394531 -1.78695312 14.13539063 -2.16015625 15.33203125 C-2.43730469 16.21246094 -2.71445313 17.09289062 -3 18 C-3.33 18 -3.66 18 -4 18 C-3.48914188 11.56318772 -2.27057103 6.04057576 0 0 Z " fill="#213257" transform="translate(136,451)"/>
<path d="M0 0 C2.40672398 2.40672398 2.79132175 4.11378549 3.6875 7.375 C3.95949219 8.33148437 4.23148437 9.28796875 4.51171875 10.2734375 C4.9947433 12.97064661 4.9004538 14.44972144 4 17 C4 16.01 4 15.02 4 14 C3.34 14 2.68 14 2 14 C1.46877637 12.23225581 0.95035927 10.46065917 0.4375 8.6875 C0.14746094 7.70136719 -0.14257812 6.71523438 -0.44140625 5.69921875 C-1 3 -1 3 0 0 Z " fill="#3B4968" transform="translate(123,756)"/>
<path d="M0 0 C5.77759884 -0.12036664 11.27959989 0.1679418 17 1 C16.34 1.66 15.68 2.32 15 3 C12.40730017 2.98252112 9.9474846 2.86231408 7.375 2.625 C6.66859375 2.56828125 5.9621875 2.5115625 5.234375 2.453125 C3.48878639 2.31159079 1.74426327 2.15702613 0 2 C0 1.34 0 0.68 0 0 Z " fill="#F96727" transform="translate(701,50)"/>
<path d="M0 0 C0.33 0 0.66 0 1 0 C1 7.26 1 14.52 1 22 C-2 19 -2 19 -2.25 16.375 C-2 14 -2 14 -1 13 C-0.76518307 10.81707226 -0.58636677 8.62796826 -0.4375 6.4375 C-0.35371094 5.23996094 -0.26992188 4.04242187 -0.18359375 2.80859375 C-0.12300781 1.88175781 -0.06242188 0.95492187 0 0 Z " fill="#F34904" transform="translate(582,861)"/>
<path d="M0 0 C0.33 0 0.66 0 1 0 C1.12375 1.134375 1.2475 2.26875 1.375 3.4375 C1.58125 4.613125 1.7875 5.78875 2 7 C2.66 7.33 3.32 7.66 4 8 C3.01 11.3 2.02 14.6 1 18 C0.67 18 0.34 18 0 18 C0 12.06 0 6.12 0 0 Z " fill="#051D42" transform="translate(926,788)"/>
<path d="M0 0 C0.99 0 1.98 0 3 0 C2.5205537 4.21912747 1.83374881 6.79663178 -1 10 C-1 9.34 -1 8.68 -1 8 C-1.66 8 -2.32 8 -3 8 C-1.125 1.125 -1.125 1.125 0 0 Z " fill="#051B3B" transform="translate(653,777)"/>
<path d="M0 0 C1.98 1.65 3.96 3.3 6 5 C5.67 5.66 5.34 6.32 5 7 C2.69 7 0.38 7 -2 7 C-1.34 4.69 -0.68 2.38 0 0 Z " fill="#0C2243" transform="translate(905,665)"/>
<path d="M0 0 C0.66 1.32 1.32 2.64 2 4 C1.01 4.33 0.02 4.66 -1 5 C-0.67 5.99 -0.34 6.98 0 8 C-0.66 8 -1.32 8 -2 8 C-2 9.65 -2 11.3 -2 13 C-2.99 13 -3.98 13 -5 13 C-4.39254603 8.14036821 -2.27241033 4.2594482 0 0 Z " fill="#182D54" transform="translate(369,392)"/>
<path d="M0 0 C0.99 0.66 1.98 1.32 3 2 C-0.62558512 6.00722566 -4.98875364 8.13867992 -10 10 C-7.02911382 6.00073014 -3.87051275 3.07881696 0 0 Z " fill="#122950" transform="translate(261,182)"/>
<path d="M0 0 C0.33 0 0.66 0 1 0 C1.12375 1.11375 1.2475 2.2275 1.375 3.375 C1.6465813 7.03103677 1.6465813 7.03103677 4 9 C3.34 10.32 2.68 11.64 2 13 C1.67 13 1.34 13 1 13 C0.67 14.98 0.34 16.96 0 19 C-0.33 19 -0.66 19 -1 19 C-0.67 12.73 -0.34 6.46 0 0 Z " fill="#334466" transform="translate(60,558)"/>
<path d="M0 0 C1.98 0 3.96 0 6 0 C6 0.99 6 1.98 6 3 C0.39 3 -5.22 3 -11 3 C-11 2.67 -11 2.34 -11 2 C-7.37 2 -3.74 2 0 2 C0 1.34 0 0.68 0 0 Z " fill="#EB510A" transform="translate(372,873)"/>
<path d="M0 0 C0.66 0 1.32 0 2 0 C2.33 1.98 2.66 3.96 3 6 C1.35 7.32 -0.3 8.64 -2 10 C-3.39195915 5.82412255 -1.82323219 3.86525224 0 0 Z " fill="#FCE7DB" transform="translate(785,864)"/>
<path d="M0 0 C0.33 0 0.66 0 1 0 C0.91266424 1.60517097 0.80447776 3.20921662 0.6875 4.8125 C0.62949219 5.70582031 0.57148437 6.59914063 0.51171875 7.51953125 C-0.06313581 10.30604 -0.8206856 11.24135754 -3 13 C-4.23593891 9.29218328 -3.5678132 8.32489747 -2.0625 4.8125 C-1.68222656 3.91144531 -1.30195312 3.01039063 -0.91015625 2.08203125 C-0.60980469 1.39496094 -0.30945313 0.70789063 0 0 Z " fill="#E2E6EC" transform="translate(775,785)"/>
<path d="M0 0 C2.475 0.495 2.475 0.495 5 1 C5 1.99 5 2.98 5 4 C4.01 4.495 4.01 4.495 3 5 C2.53248212 7.35599235 2.53248212 7.35599235 2.375 10.0625 C2.30023437 10.98160156 2.22546875 11.90070312 2.1484375 12.84765625 C2.09945312 13.55792969 2.05046875 14.26820313 2 15 C1.67 15 1.34 15 1 15 C0.67 10.05 0.34 5.1 0 0 Z " fill="#F2F4F6" transform="translate(547,790)"/>
<path d="M0 0 C2.97 0.33 5.94 0.66 9 1 C9 1.33 9 1.66 9 2 C0.09 2.99 0.09 2.99 -9 4 C-8.34 3.67 -7.68 3.34 -7 3 C-7 2.34 -7 1.68 -7 1 C-4.69 1.33 -2.38 1.66 0 2 C0 1.34 0 0.68 0 0 Z " fill="#445474" transform="translate(706,1188)"/>
<path d="M0 0 C0 0.33 0 0.66 0 1 C-1.98 1.33 -3.96 1.66 -6 2 C-6 2.66 -6 3.32 -6 4 C-7.98 4 -9.96 4 -12 4 C-12 3.01 -12 2.02 -12 1 C-7.67265609 -1.22923777 -4.71599818 -0.92470553 0 0 Z " fill="#FA611B" transform="translate(899,872)"/>
<path d="M0 0 C0.99 0.33 1.98 0.66 3 1 C3 1.66 3 2.32 3 3 C-4.26 3 -11.52 3 -19 3 C-19 2.67 -19 2.34 -19 2 C-12.73 2 -6.46 2 0 2 C0 1.34 0 0.68 0 0 Z " fill="#1F3057" transform="translate(910,671)"/>
<path d="M0 0 C0.33 0 0.66 0 1 0 C2.94305123 5.58441823 3.12697555 10.07944538 2.625 15.9375 C2.56828125 16.71673828 2.5115625 17.49597656 2.453125 18.29882812 C2.31315654 20.20006639 2.15813968 22.10018686 2 24 C1.67 24 1.34 24 1 24 C0.67 16.08 0.34 8.16 0 0 Z " fill="#1F3B61" transform="translate(359,419)"/>
<path d="M0 0 C1.22556441 4.59586655 1.86491765 8.30947915 -0.375 12.6875 C-0.91125 13.450625 -1.4475 14.21375 -2 15 C-2.66 15.99 -3.32 16.98 -4 18 C-3.31195504 11.80759538 -1.71951285 5.98044406 0 0 Z " fill="#FCCDB8" transform="translate(710,358)"/>
<path d="M0 0 C2.35953094 2.35953094 2.49141413 3.77895617 3 7 C0.69 7.66 -1.62 8.32 -4 9 C-2.80100302 5.9168649 -1.52299523 2.93720508 0 0 Z " fill="#FB6B2D" transform="translate(705,362)"/>
<path d="M0 0 C3.63 0 7.26 0 11 0 C10.67 0.99 10.34 1.98 10 3 C7.69 3 5.38 3 3 3 C3 2.34 3 1.68 3 1 C2.01 0.67 1.02 0.34 0 0 Z " fill="#FA5008" transform="translate(470,856)"/>
<path d="M0 0 C-1.32 0.33 -2.64 0.66 -4 1 C-4 1.99 -4 2.98 -4 4 C-7.87493656 5.07637127 -9.52452927 4.94566951 -13 3 C-11.21189234 2.30329584 -9.41937948 1.61788811 -7.625 0.9375 C-6.62726563 0.55464844 -5.62953125 0.17179687 -4.6015625 -0.22265625 C-2 -1 -2 -1 0 0 Z " fill="#334668" transform="translate(428,85)"/>
<path d="M0 0 C0.33 1.32 0.66 2.64 1 4 C2.32 4 3.64 4 5 4 C5 2.68 5 1.36 5 0 C5.66 0 6.32 0 7 0 C6.34 1.98 5.68 3.96 5 6 C3.02 6 1.04 6 -1 6 C-0.67 4.02 -0.34 2.04 0 0 Z " fill="#FA7138" transform="translate(769,886)"/>
<path d="M0 0 C2.31 0 4.62 0 7 0 C7.33 1.32 7.66 2.64 8 4 C5.36 3.67 2.72 3.34 0 3 C0 2.01 0 1.02 0 0 Z " fill="#051C3D" transform="translate(243,787)"/>
<path d="M0 0 C0.33 0 0.66 0 1 0 C1.33 5.94 1.66 11.88 2 18 C1.67 16.68 1.34 15.36 1 14 C0.34 14 -0.32 14 -1 14 C-0.67 9.38 -0.34 4.76 0 0 Z " fill="#636E88" transform="translate(109,670)"/>
<path d="M0 0 C0.66 0.33 1.32 0.66 2 1 C0.55609075 4.80666984 -1.34952803 6.26602582 -5 8 C-5.66 7.67 -6.32 7.34 -7 7 C-4.69 4.69 -2.38 2.38 0 0 Z " fill="#1A325A" transform="translate(360,662)"/>
<path d="M0 0 C3.63559661 3.43361902 6.36113346 6.7973607 9 11 C5.17035345 9.43977363 2.67809511 7.12444429 0 4 C0 2.68 0 1.36 0 0 Z " fill="#F85C1C" transform="translate(1076,268)"/>
<path d="M0 0 C0.66 0.33 1.32 0.66 2 1 C1.09972412 2.03531726 0.17906965 3.05294165 -0.75 4.0625 C-1.51570312 4.91521484 -1.51570312 4.91521484 -2.296875 5.78515625 C-4 7 -4 7 -6.203125 6.68359375 C-6.79609375 6.45800781 -7.3890625 6.23242188 -8 6 C-5.54080489 3.3651481 -3.42227589 1.25483449 0 0 Z " fill="#1A2F50" transform="translate(558,772)"/>
<path d="M0 0 C2 3 2 3 1.625 5.1875 C1.41875 5.785625 1.2125 6.38375 1 7 C0.34 7 -0.32 7 -1 7 C-1.33 8.32 -1.66 9.64 -2 11 C-2.66 11 -3.32 11 -4 11 C-3.52269162 9.5410574 -3.04308958 8.08286504 -2.5625 6.625 C-2.29566406 5.81289063 -2.02882813 5.00078125 -1.75390625 4.1640625 C-1 2 -1 2 0 0 Z " fill="#24355B" transform="translate(111,380)"/>
<path d="M0 0 C0.66 0.66 1.32 1.32 2 2 C0.35 3.32 -1.3 4.64 -3 6 C-3.66 5.67 -4.32 5.34 -5 5 C-5.33 5.66 -5.66 6.32 -6 7 C-6.66 6.34 -7.32 5.68 -8 5 C-4.04 2.525 -4.04 2.525 0 0 Z " fill="#172D55" transform="translate(317,140)"/>
<path d="M0 0 C-3.51187196 2.40814077 -5.72656908 3.36629408 -10 3 C-10.33 2.34 -10.66 1.68 -11 1 C-3.57142857 -1.42857143 -3.57142857 -1.42857143 0 0 Z " fill="#E4E7ED" transform="translate(501,117)"/>
<path d="M0 0 C2 1 2 1 3 3 C1.75579353 3.5345256 0.50429064 4.05208611 -0.75 4.5625 C-1.44609375 4.85253906 -2.1421875 5.14257812 -2.859375 5.44140625 C-5.30012784 6.07831803 -6.6403655 5.80248831 -9 5 C-7.54735962 4.1361871 -6.0876837 3.28419546 -4.625 2.4375 C-3.40683594 1.72400391 -3.40683594 1.72400391 -2.1640625 0.99609375 C-1.44992187 0.66738281 -0.73578125 0.33867188 0 0 Z " fill="#26375C" transform="translate(365,111)"/>
<path d="M0 0 C0.33 0 0.66 0 1 0 C1.1953125 6.0546875 1.1953125 6.0546875 1 8 C0.34 8.66 -0.32 9.32 -1 10 C-1.99 10 -2.98 10 -4 10 C-4 8.35 -4 6.7 -4 5 C-3.34 5 -2.68 5 -2 5 C-2 5.66 -2 6.32 -2 7 C-1.34 7 -0.68 7 0 7 C0 4.69 0 2.38 0 0 Z " fill="#F9753C" transform="translate(905,878)"/>
<path d="M0 0 C0.33 0.66 0.66 1.32 1 2 C1.66 2 2.32 2 3 2 C3.625 4.875 3.625 4.875 4 8 C3.34 8.66 2.68 9.32 2 10 C0.39644899 6.49223216 -0.22036864 3.85645121 0 0 Z " fill="#2A3D63" transform="translate(747,807)"/>
<path d="M0 0 C0.33 0 0.66 0 1 0 C1.49230769 6.4 1.49230769 6.4 -1 9.4375 C-1.99 10.2109375 -1.99 10.2109375 -3 11 C-2.34 9.35 -1.68 7.7 -1 6 C-1.66 5.67 -2.32 5.34 -3 5 C-2.67 4.01 -2.34 3.02 -2 2 C-1.34 2 -0.68 2 0 2 C0 1.34 0 0.68 0 0 Z " fill="#081A3C" transform="translate(269,801)"/>
<path d="M0 0 C0.66 0 1.32 0 2 0 C1.74445946 1.46109063 1.46999628 2.91888096 1.1875 4.375 C1.03667969 5.18710937 0.88585937 5.99921875 0.73046875 6.8359375 C0 9 0 9 -3 11 C-2.44894091 7.0507432 -1.61064629 3.65079826 0 0 Z " fill="#192E53" transform="translate(643,782)"/>
<path d="M0 0 C2.97 0.495 2.97 0.495 6 1 C5.67 1.66 5.34 2.32 5 3 C2.35139573 3.59355614 -0.29197322 3.74209269 -3 4 C-2.01 2.68 -1.02 1.36 0 0 Z " fill="#081B3C" transform="translate(546,667)"/>
<path d="M0 0 C0.99 0 1.98 0 3 0 C1.7508258 3.45925163 0.32472205 6.14693203 -2 9 C-3 6 -3 6 -1.5625 2.8125 C-1.046875 1.884375 -0.53125 0.95625 0 0 Z " fill="#182C54" transform="translate(1134,884)"/>
<path d="M0 0 C0.66 0.99 1.32 1.98 2 3 C1.21069203 5.48935591 0.1651105 7.669779 -1 10 C-1.66 10 -2.32 10 -3 10 C-2.01 6.7 -1.02 3.4 0 0 Z " fill="#2B3D63" transform="translate(774,757)"/>
<path d="M0 0 C1.38076179 3.83544942 0.85712183 7.07152497 0 11 C-1.5625 12.9375 -1.5625 12.9375 -3 14 C-2.40380045 9.13103697 -1.43023178 4.67209049 0 0 Z " fill="#FDD7C6" transform="translate(682,458)"/>
<path d="M0 0 C0.66 0.33 1.32 0.66 2 1 C-1.87564767 4.61139896 -1.87564767 4.61139896 -4 6 C-6.375 5.8125 -6.375 5.8125 -8 5 C-5.45378681 2.99940392 -3.01962385 1.20784954 0 0 Z " fill="#1A3154" transform="translate(989,1001)"/>
<path d="M0 0 C2.0625 0.4375 2.0625 0.4375 4 1 C4 2.32 4 3.64 4 5 C3.01 5 2.02 5 1 5 C0.34 3.68 -0.32 2.36 -1 1 C-0.67 0.67 -0.34 0.34 0 0 Z " fill="#FB5E28" transform="translate(537,883)"/>
<path d="M0 0 C1 2 1 2 0.44140625 3.9453125 C0.15136719 4.66460938 -0.13867188 5.38390625 -0.4375 6.125 C-0.72496094 6.84945312 -1.01242187 7.57390625 -1.30859375 8.3203125 C-1.53675781 8.87460937 -1.76492188 9.42890625 -2 10 C-2.99 10 -3.98 10 -5 10 C-5 9.01 -5 8.02 -5 7 C-4.34 7 -3.68 7 -3 7 C-3 6.01 -3 5.02 -3 4 C-2.34 4 -1.68 4 -1 4 C-1.33 3.01 -1.66 2.02 -2 1 C-1.34 0.67 -0.68 0.34 0 0 Z " fill="#FA692C" transform="translate(1165,814)"/>
<path d="M0 0 C1.875 0.25 1.875 0.25 4 1 C5.25 3.0625 5.25 3.0625 6 5 C3.36 4.67 0.72 4.34 -2 4 C-2 3.34 -2 2.68 -2 2 C-1.34 2 -0.68 2 0 2 C0 1.34 0 0.68 0 0 Z " fill="#122D56" transform="translate(972,814)"/>
<path d="M0 0 C0.66 0.33 1.32 0.66 2 1 C1.45276317 4.37462715 0.9451 6.08235 -1 9 C-1.66 9 -2.32 9 -3 9 C-2.01 6.03 -1.02 3.06 0 0 Z " fill="#DCE0E8" transform="translate(781,770)"/>
<path d="M0 0 C1.98 0 3.96 0 6 0 C4.35830472 2.02054804 2.69088222 4.02043058 1 6 C0.67 6 0.34 6 0 6 C0 4.02 0 2.04 0 0 Z " fill="#102049" transform="translate(581,753)"/>
<path d="M0 0 C0 3 0 3 -1.3125 4.38671875 C-2.875 5.59114583 -4.4375 6.79557292 -6 8 C-6.33 7.01 -6.66 6.02 -7 5 C-4.702779 3.25728062 -2.40133271 1.60088848 0 0 Z " fill="#061B3F" transform="translate(255,258)"/>
<path d="M0 0 C0.66 0.99 1.32 1.98 2 3 C0.35 4.98 -1.3 6.96 -3 9 C-3.66 8.01 -4.32 7.02 -5 6 C-3.35 4.02 -1.7 2.04 0 0 Z " fill="#163057" transform="translate(197,246)"/>
<path d="M0 0 C0 0.66 0 1.32 0 2 C-4.455 2.495 -4.455 2.495 -9 3 C-9 2.34 -9 1.68 -9 1 C-5.8035914 -0.06546953 -3.34252724 -0.07427838 0 0 Z " fill="#313D61" transform="translate(747,1131)"/>
<path d="M0 0 C1.65 0 3.3 0 5 0 C5.33 0.66 5.66 1.32 6 2 C3.47524538 3.26237731 1.68799534 3.09856404 -1.125 3.0625 C-2.03507813 3.05347656 -2.94515625 3.04445313 -3.8828125 3.03515625 C-4.58148437 3.02355469 -5.28015625 3.01195312 -6 3 C-6 2.67 -6 2.34 -6 2 C-4.02 1.67 -2.04 1.34 0 1 C0 0.67 0 0.34 0 0 Z " fill="#F54E09" transform="translate(530,889)"/>
<path d="M0 0 C1.65 0.33 3.3 0.66 5 1 C5 1.66 5 2.32 5 3 C4.0409375 3.433125 4.0409375 3.433125 3.0625 3.875 C0.84793921 4.82823451 0.84793921 4.82823451 0 7 C-0.66 7 -1.32 7 -2 7 C-1.34 4.69 -0.68 2.38 0 0 Z " fill="#17345F" transform="translate(655,753)"/>
<path d="M0 0 C2.69082872 0.17635452 5.32851446 0.61835921 8 1 C7.67 1.66 7.34 2.32 7 3 C4.125 3.125 4.125 3.125 1 3 C0.34 2.34 -0.32 1.68 -1 1 C-0.67 0.67 -0.34 0.34 0 0 Z " fill="#132A56" transform="translate(954,753)"/>
<path d="M0 0 C0.66 0 1.32 0 2 0 C1.67 2.97 1.34 5.94 1 9 C0.67 8.01 0.34 7.02 0 6 C-0.66 6 -1.32 6 -2 6 C-1.34 4.02 -0.68 2.04 0 0 Z " fill="#132549" transform="translate(115,527)"/>
<path d="M0 0 C1.65 0 3.3 0 5 0 C3.92598892 2.91517292 3.22189824 4.77810176 1 7 C0.67 4.69 0.34 2.38 0 0 Z " fill="#D5DAE2" transform="translate(736,496)"/>
<path d="M0 0 C0.33 0 0.66 0 1 0 C1.49230769 6.4 1.49230769 6.4 -1 9.4375 C-1.99 10.2109375 -1.99 10.2109375 -3 11 C-2.32829194 7.1936543 -1.27253436 3.64793184 0 0 Z " fill="#DADEE5" transform="translate(143,437)"/>
<path d="M0 0 C0.66 0 1.32 0 2 0 C1.64950425 3.24208567 1.43778819 4.61527704 -1.0625 6.8125 C-1.701875 7.204375 -2.34125 7.59625 -3 8 C-3 4.40142046 -2.04169485 2.90548882 0 0 Z " fill="#122951" transform="translate(161,293)"/>
<path d="M0 0 C0.53625 0.37125 1.0725 0.7425 1.625 1.125 C-5.80357143 3.26785714 -5.80357143 3.26785714 -9.375 4.125 C-9.045 3.135 -8.715 2.145 -8.375 1.125 C-3.33298319 -1.22794118 -3.33298319 -1.22794118 0 0 Z " fill="#F2F3F6" transform="translate(479.375,122.875)"/>
<path d="M0 0 C-4.41225737 1.47075246 -7.48281619 2.36884358 -12 1 C-7.39518076 -1.46686745 -4.70856975 -2.85877449 0 0 Z " fill="#2B3A5F" transform="translate(522,111)"/>
<path d="M0 0 C2.31 0.66 4.62 1.32 7 2 C7 2.33 7 2.66 7 3 C3.7 3.33 0.4 3.66 -3 4 C-2.34 3.67 -1.68 3.34 -1 3 C-0.67 2.01 -0.34 1.02 0 0 Z " fill="#FB631A" transform="translate(524,888)"/>
<path d="M0 0 C0.66 0 1.32 0 2 0 C2 0.99 2 1.98 2 3 C2.99 3.33 3.98 3.66 5 4 C5 4.66 5 5.32 5 6 C6.32 6.33 7.64 6.66 9 7 C6.1875 7.3125 6.1875 7.3125 3 7 C1.11400657 4.61107499 0 3.08148442 0 0 Z " fill="#091D43" transform="translate(355,812)"/>
<path d="M0 0 C0.66 0 1.32 0 2 0 C2.66 2.31 3.32 4.62 4 7 C3.01 6.67 2.02 6.34 1 6 C0.67 6.99 0.34 7.98 0 9 C0 6.03 0 3.06 0 0 Z " fill="#233254" transform="translate(743,773)"/>
<path d="M0 0 C0.99 0.33 1.98 0.66 3 1 C0.42215154 3.64752004 -1.91648098 5.94432065 -5 8 C-4.45773019 4.20411134 -2.79872437 2.52788007 0 0 Z " fill="#1B2B50" transform="translate(570,756)"/>
<path d="M0 0 C1.65 0 3.3 0 5 0 C8 5.75 8 5.75 8 8 C7.01 7.67 6.02 7.34 5 7 C4.67 5.02 4.34 3.04 4 1 C2.68 0.67 1.36 0.34 0 0 Z " fill="#182548" transform="translate(663,753)"/>
<path d="M0 0 C2.5 2.3125 2.5 2.3125 5 5 C5 5.99 5 6.98 5 8 C3.02 6.35 1.04 4.7 -1 3 C-0.67 2.01 -0.34 1.02 0 0 Z " fill="#E2E5EB" transform="translate(738,534)"/>
<path d="M0 0 C2 4 2 4 1.25 7.1875 C0 10 0 10 -2 11 C-1.34 7.37 -0.68 3.74 0 0 Z " fill="#DBDFE7" transform="translate(130,474)"/>
<path d="M0 0 C4.875 2.625 4.875 2.625 6 6 C4.68 6 3.36 6 2 6 C1.34 4.02 0.68 2.04 0 0 Z " fill="#FB6731" transform="translate(536,857)"/>
<path d="M0 0 C0.66 0 1.32 0 2 0 C2.99 2.97 3.98 5.94 5 9 C1.96938234 6.97958823 1.27760233 6.24314437 0 3 C0 2.01 0 1.02 0 0 Z " fill="#27375A" transform="translate(156,847)"/>
<path d="M0 0 C1.98 0.99 1.98 0.99 4 2 C4 3.32 4 4.64 4 6 C5.32 6.33 6.64 6.66 8 7 C5.6875 7.3125 5.6875 7.3125 3 7 C1.18116991 4.6167054 0 3.04181663 0 0 Z " fill="#0B1B3D" transform="translate(961,812)"/>
<path d="M0 0 C2.0625 0.4375 2.0625 0.4375 4 1 C3.67 2.65 3.34 4.3 3 6 C2.01 5.67 1.02 5.34 0 5 C-0.75 3 -0.75 3 -1 1 C-0.67 0.67 -0.34 0.34 0 0 Z " fill="#D0D4DE" transform="translate(755,797)"/>
<path d="M0 0 C2 1 2 1 3.125 4.0625 C3.41375 5.031875 3.7025 6.00125 4 7 C3.01 7.33 2.02 7.66 1 8 C0.26919734 6.02253397 -0.39421747 4.01927511 -1 2 C-0.67 1.34 -0.34 0.68 0 0 Z " fill="#F3F4F6" transform="translate(753,790)"/>
<path d="M0 0 C0.99 0.33 1.98 0.66 3 1 C1.02 3.31 -0.96 5.62 -3 8 C-3.33 6.68 -3.66 5.36 -4 4 C-3.34 4 -2.68 4 -2 4 C-1.34 2.68 -0.68 1.36 0 0 Z " fill="#2F405F" transform="translate(563,776)"/>
<path d="M0 0 C5.53846154 0.61538462 5.53846154 0.61538462 7.875 2.5625 C8.431875 3.2740625 8.431875 3.2740625 9 4 C7.02 4 5.04 4 3 4 C2.67 3.01 2.34 2.02 2 1 C1.34 0.67 0.68 0.34 0 0 Z " fill="#404F73" transform="translate(352,753)"/>
<path d="M0 0 C1.32 0.33 2.64 0.66 4 1 C3.67 2.65 3.34 4.3 3 6 C2.01 6 1.02 6 0 6 C0 4.02 0 2.04 0 0 Z " fill="#F95F24" transform="translate(611,691)"/>
<path d="M0 0 C3.2910841 3.60957611 4.54663921 6.12637153 5 11 C0 4.40909091 0 4.40909091 0 0 Z " fill="#102653" transform="translate(571,549)"/>
<path d="M0 0 C1.52453435 2.94017338 2.95157395 5.85472185 4 9 C3.67 9.99 3.34 10.98 3 12 C2.30314502 10.3789897 1.61777139 8.75303934 0.9375 7.125 C0.55464844 6.22007812 0.17179687 5.31515625 -0.22265625 4.3828125 C-1 2 -1 2 0 0 Z " fill="#172A53" transform="translate(366,467)"/>
<path d="M0 0 C0.99 0.66 1.98 1.32 3 2 C0.64031256 4.09749995 -0.54616994 4.96905704 -3.75 5.1875 C-4.86375 5.0946875 -4.86375 5.0946875 -6 5 C-5.195625 4.360625 -4.39125 3.72125 -3.5625 3.0625 C-1.7249496 1.59396498 -1.7249496 1.59396498 0 0 Z " fill="#193056" transform="translate(305,148)"/>
<path d="M0 0 C-0.33 1.32 -0.66 2.64 -1 4 C-3.97 3.505 -3.97 3.505 -7 3 C-3.375 0 -3.375 0 0 0 Z " fill="#283D60" transform="translate(388,101)"/>
<path d="M0 0 C0 0.66 0 1.32 0 2 C-4.01804691 2.84098656 -7.01803543 3.05404945 -11 2 C-11 1.67 -11 1.34 -11 1 C-7.27569643 0.30710631 -3.78916254 -0.11144596 0 0 Z " fill="#2C3C61" transform="translate(520,59)"/>
<path d="M0 0 C2.31 0.66 4.62 1.32 7 2 C7 2.33 7 2.66 7 3 C3.7 3.33 0.4 3.66 -3 4 C-2.01 2.68 -1.02 1.36 0 0 Z " fill="#FA6825" transform="translate(887,888)"/>
<path d="M0 0 C1.32 0.33 2.64 0.66 4 1 C3.67 2.98 3.34 4.96 3 7 C2.34 6.67 1.68 6.34 1 6 C0.375 2.9375 0.375 2.9375 0 0 Z " fill="#091A3F" transform="translate(734,774)"/>
<path d="M0 0 C0.33 0.99 0.66 1.98 1 3 C-1.97 5.475 -1.97 5.475 -5 8 C-5.66 7.67 -6.32 7.34 -7 7 C-4.69 4.69 -2.38 2.38 0 0 Z " fill="#D7DDE5" transform="translate(585,755)"/>
<path d="M0 0 C0.33 1.32 0.66 2.64 1 4 C0.01 4.33 -0.98 4.66 -2 5 C-2.33 5.99 -2.66 6.98 -3 8 C-3.66 8 -4.32 8 -5 8 C-3.62845496 5.04590299 -2.01136276 2.55991624 0 0 Z " fill="#202F54" transform="translate(570,617)"/>
<path d="M0 0 C-0.33 1.65 -0.66 3.3 -1 5 C-1.66 4.34 -2.32 3.68 -3 3 C-5.32275177 2.59952556 -7.65739357 2.2602896 -10 2 C-10 1.67 -10 1.34 -10 1 C-2.25 0 -2.25 0 0 0 Z " fill="#F76723" transform="translate(721,507)"/>
<path d="M0 0 C3.34998521 1.11666174 3.79340222 1.74694925 5.6875 4.5625 C6.12449219 5.20316406 6.56148437 5.84382813 7.01171875 6.50390625 C7.33785156 6.99761719 7.66398438 7.49132812 8 8 C4.63820226 6.55922954 2.40843732 4.75249979 0 2 C0 1.34 0 0.68 0 0 Z " fill="#1B284D" transform="translate(759,497)"/>
<path d="M0 0 C0.99 0.33 1.98 0.66 3 1 C2.34 2.32 1.68 3.64 1 5 C0.01 5 -0.98 5 -2 5 C-2.33 4.01 -2.66 3.02 -3 2 C-2.01 2 -1.02 2 0 2 C0 1.34 0 0.68 0 0 Z " fill="#1B2E4D" transform="translate(758,481)"/>
<path d="M0 0 C0.66 0 1.32 0 2 0 C1.74438677 2.3431213 1.40729228 4.67843403 1 7 C0.01 7.495 0.01 7.495 -1 8 C-1.04241723 5.66705225 -1.04092937 3.33297433 -1 1 C-0.67 0.67 -0.34 0.34 0 0 Z " fill="#E8EAEE" transform="translate(104,390)"/>
<path d="M0 0 C0.99 0 1.98 0 3 0 C2.6875 1.875 2.6875 1.875 2 4 C1.01 4.66 0.02 5.32 -1 6 C-1.042721 4.33388095 -1.04063832 2.66617115 -1 1 C-0.67 0.67 -0.34 0.34 0 0 Z " fill="#142849" transform="translate(894,342)"/>
<path d="M0 0 C0.66 0.33 1.32 0.66 2 1 C-1.465 3.97 -1.465 3.97 -5 7 C-5.66 6.67 -6.32 6.34 -7 6 C-4.69 4.02 -2.38 2.04 0 0 Z " fill="#0A1D45" transform="translate(271,174)"/>
<path d="M0 0 C0 0.66 0 1.32 0 2 C-4.43076923 4.09230769 -4.43076923 4.09230769 -7.3125 3.625 C-7.869375 3.41875 -8.42625 3.2125 -9 3 C-3.375 0 -3.375 0 0 0 Z " fill="#334166" transform="translate(406,93)"/>
</svg>
